<svg id="TIPOGRAFIA" xmlns="http://www.w3.org/2000/svg" viewBox="0 0 536.56 157.56"><defs><style>.cls-1{fill:#e43b16;}.cls-2{fill:#fff;}.cls-3{fill:#ffec00;}</style></defs><title>sonparei</title><path class="cls-1" d="M1942.22,272a14.32,14.32,0,0,0-.35-2.36,14.63,14.63,0,0,0-.73-2.27,15.53,15.53,0,0,0-1.06-2.08,17.39,17.39,0,0,0-1.32-1.87l-0.17-.2a7.6,7.6,0,0,0,2.22-3.62,7.72,7.72,0,0,0,.26-2.43,7.61,7.61,0,0,0-.15-1.19,7.93,7.93,0,0,0-.32-1.1,7.59,7.59,0,0,0-.37-0.83c-0.1-.19-0.21-0.39-0.33-0.58l-1-1.66q-0.45-.75-0.8-1.36c-0.21-.37-0.39-0.69-0.54-1s-0.19-.36-0.27-0.55l0-.06a8.5,8.5,0,0,0-.75-1.29,7.89,7.89,0,0,0-1.53-1.62,7.75,7.75,0,0,0-4.78-1.69h-1.3a7.24,7.24,0,0,0,.91-0.73,7.72,7.72,0,0,0,1.57-2.08,7.82,7.82,0,0,0,.75-2.2,8.4,8.4,0,0,0,.13-1.84,9.15,9.15,0,0,0-.14-1.29c0-.16-0.06-0.33-0.11-0.51l-0.09-.37c0-.12-0.07-0.24-0.13-0.43l-0.12-.37q-0.82-2.3-1.66-4.58t-1.68-4.53l-1.68-4.47-3.33-8.8q-0.82-2.17-1.63-4.34t-1.59-4.29c-0.51-1.39-1-2.77-1.51-4.18l-1.58.56,1.56-.62-0.88-2.55-0.9-2.75-0.68-2.15-0.73-2.36-0.78-2.56-0.83-2.76q-0.77-2.59-1.46-4.83T1911,175q-0.62-1.94-1.15-3.55c-0.36-1.09-.7-2.08-1-2.92a8.6,8.6,0,0,0-1.16-2.21,8.33,8.33,0,0,0-4.61-3.16,9.05,9.05,0,0,0-2.3-.3h-0.46l-0.37,0h-0.08l-0.4,0-0.37.06-1,.17-1,.21-1.2.25-1.35.3-1.24.27-1.06.22-0.86.17-0.61.11-0.68.1-0.91.13-1.12.14-1.34.16-1.42.17-1.24.15-1.08.14-1,.14a8.73,8.73,0,0,0-2.73.91l-0.16.09-0.27.16-3.08,1.9a10.05,10.05,0,0,0-2.39-.9,11.09,11.09,0,0,0-2.52-.29h-0.5l-0.43,0-0.48,0-0.45.06-2,.31-2.39.38-2.81.46-3.23.54-3.17.53-2.75.43-2.3.35-1.85.26-1.89.24-2.36.27-2.82.3-3.29.33-3.34.32-2.9.29-2.48.25-2.07.23a9.08,9.08,0,0,0-2.59.69,8,8,0,0,0-1.2.65c-0.21.13-.41,0.27-0.6,0.42l-6.42,5a36.33,36.33,0,0,0-4.22-1.75,36.9,36.9,0,0,0-4.7-1.26,40.82,40.82,0,0,0-4.56-.64c-1.38-.12-2.82-0.18-4.38-0.18h-1.06l-1.07,0-1,0-1,0c-0.92,0-1.94.12-3.11,0.23s-2.22.21-3.45,0.34l-3.82.41-4.2.44-5.89.6-4.47.48c-1.3.14-2.34,0.27-3.13,0.37a20.4,20.4,0,0,0-2.34.41,11.51,11.51,0,0,0-1.84.63,9,9,0,0,0-2.28,1.46,8.15,8.15,0,0,0-.68.67l-0.18.21-0.12.15-12,15c-0.77-1.49-1.49-2.88-2.18-4.19-1.67-3.17-3.23-6-4.76-8.66a12.72,12.72,0,0,0-1-1.54,10.32,10.32,0,0,0-1.55-1.58,9,9,0,0,0-2.36-1.4,8.39,8.39,0,0,0-3.48-.61l-0.92.05-1,.08-1.13.1-1.26.13-1.12.12-1,.09-0.76.06-0.5,0h-1.16l-0.7,0-0.78,0-0.92,0-1.08-.05-1,0-0.89,0h-1.77a7.94,7.94,0,0,0-4.3,1.44,8.51,8.51,0,0,0-2.23,2.32,10.37,10.37,0,0,0-1,1.88l-0.83,2.2-7.15,14.29-0.22-.56a32.89,32.89,0,0,0-3.13-5.93,30.6,30.6,0,0,0-4.44-5.26,32,32,0,0,0-5.39-4.09,34.45,34.45,0,0,0-5.9-2.83,37.77,37.77,0,0,0-6.17-1.69,40.94,40.94,0,0,0-6.25-.66l-3.58-.11-3.68-.11-3.78-.1-3.87-.08-2.8,0-2.58,0-2.36,0h-4.57l-2.1,0-1.8.06c-0.59,0-1.11.06-1.57,0.11a10.89,10.89,0,0,0-2,.37,9,9,0,0,0-2.61,1.23l0,0a8,8,0,0,0-1.71-1.39,8.24,8.24,0,0,0-3.87-1.15l-1.77-.05-2.11,0-2.46,0-2.83,0-2.74,0-2.36,0-2-.05-1.58-.07a8,8,0,0,0-4.33,1,8.17,8.17,0,0,0-2.86,2.65,9.26,9.26,0,0,0-1.17,2.54,11.53,11.53,0,0,0-.38,2q-0.14,1.36-.28,3.06t-0.26,3.67q-0.1,1.48-.19,3.16L1584.15,180l-0.12-.15-0.29-.34A9,9,0,0,0,1582,178a7.94,7.94,0,0,0-3.9-1.37l-1,0h-1.25l-0.92,0-1,.07-1,.09-1.3.13-1,.09-0.69.05h-3.29l-1.24,0-1.11-.05-1-.07-0.48,0h-0.32a10.84,10.84,0,0,0-2.41.2,8.92,8.92,0,0,0-2.64,1,8.2,8.2,0,0,0-4,5.77q-0.24,1.43-.52,3.22-0.15.95-.3,2l-10.75-9.38-0.27-.22a37.81,37.81,0,0,0-5.83-4.11,40,40,0,0,0-7.51-3.31,42.85,42.85,0,0,0-8.12-1.76l-1.29-.13-1.29-.09-1.29-.06-1.29,0h-0.07a46,46,0,0,0-7,.55,47,47,0,0,0-7,1.65,48.07,48.07,0,0,0-6.79,2.75c-0.54.27-1.09,0.55-1.63,0.85l-16.63-11-0.31-.2a8,8,0,0,0-2.82-1l-0.27,1.65,0.18-1.67-0.38-.05-0.36,0-0.36,0-0.52,0-0.75,0h-0.9a45.36,45.36,0,0,0-4.89.27c-1.63.18-3.3,0.45-5,.8s-3.28.78-4.89,1.28-3.22,1.09-4.77,1.74a33.88,33.88,0,0,0-5.35,2.83,32.31,32.31,0,0,0-4.81,3.82,29.39,29.39,0,0,0-4,4.83,26.46,26.46,0,0,0-2.93,5.83,29.82,29.82,0,0,0-1.11,4,26.75,26.75,0,0,0-.51,4.06,25.16,25.16,0,0,0,.14,4.09A25.41,25.41,0,0,0,1432,201a13.77,13.77,0,0,0,.55,1.48q0.25,0.6.69,1.59l1,2.23,1.34,2.94,0.34,0.74,1.52-.7-1.5.75,0.22,0.47a10.34,10.34,0,0,1,.44,1.1,5.62,5.62,0,0,1,.21.79,2.69,2.69,0,0,1,.05.46,1,1,0,0,1,0,.11l0,0.09a2.69,2.69,0,0,1-.29.59,2.14,2.14,0,0,1-.4.45,3.73,3.73,0,0,1-.76.5,7.63,7.63,0,0,1-1.44.53c-0.11,0-.41.11-1,0.21s-1.21.18-2,.26-1.72.16-2.71,0.22-2.19.12-3.35,0.15a9,9,0,0,0-1.77.21,8.22,8.22,0,0,0-2.21.83,7.9,7.9,0,0,0-2.23,1.81,8,8,0,0,0-1.46,2.52,10.68,10.68,0,0,0-.57,3.5,24.87,24.87,0,0,0,.14,2.8c0.09,0.93.23,2,.42,3.18s0.41,2.43.68,3.83,0.56,2.72.83,3.84,0.59,2.26.9,3.15a15.34,15.34,0,0,0,1.33,3,8.28,8.28,0,0,0,4.51,3.73l0.54,0.16,1.29,0.32-1.41,0h-0.19c-0.76,0-1.5.06-2.22,0.14a24.35,24.35,0,0,0-2.79.45,21.67,21.67,0,0,0-2.71.79,19.92,19.92,0,0,0-2.53,1.13,16.64,16.64,0,0,0-3.06,2.06,14.28,14.28,0,0,0-2.55,2.85,13.65,13.65,0,0,0-1.7,3.49,14.82,14.82,0,0,0-.67,3.76,16.62,16.62,0,0,0,1.2,7,17.85,17.85,0,0,0,1,2.15c0.09,0.16.19,0.32,0.3,0.48a7.46,7.46,0,0,0-1.2.7l-0.06,0a7.47,7.47,0,0,0-3.08,5.75,8.71,8.71,0,0,0,.36,2.78,15.77,15.77,0,0,0,.52,1.51c0.17,0.43.38,0.93,0.63,1.48s0.48,1,.78,1.67,0.6,1.2.85,1.69,0.58,1.05.85,1.48a12.12,12.12,0,0,0,1.18,1.6,7.77,7.77,0,0,0,4.41,2.56l0.49,0.08,0.41,0,0.23,0h0.5a25.87,25.87,0,0,0,3.21-.2l12.86-1.79,0.7,0.62a23.7,23.7,0,0,0,8,4.48,26.27,26.27,0,0,0,4.51,1l0.89,0.11,0.91,0.08,0.9,0a23,23,0,0,0,4.56-.28l6.81-1.22a7.41,7.41,0,0,0,1.84,1.81,7.77,7.77,0,0,0,1.63.86,8.14,8.14,0,0,0,1.11.34c0.28,0.07.58,0.12,0.88,0.16l7.54,0.91a7.56,7.56,0,0,0,1.81,0q0.36,0,.72-0.12l1-.22a8.38,8.38,0,0,0,1.68,1,9.46,9.46,0,0,0,1.63.55,11.67,11.67,0,0,0,1.33.24l0.7,0.08,0.41,0c0.28,0,.49,0,0.65,0a7.25,7.25,0,0,0,1-.07l0.35-.06,0.36-.07,1.6-.37,0.25,0.14a8,8,0,0,0,2.74.84l7.76,1,0.37,0,0.26,0h0.38a7.77,7.77,0,0,0,1.29-.11,7.21,7.21,0,0,0,.72-0.15l4.91-1.28a22.92,22.92,0,0,0,7.06,3.45,25.47,25.47,0,0,0,4.5.88l0.68,0.06,0.68,0,0.68,0a23.4,23.4,0,0,0,4.56-.31,20.88,20.88,0,0,0,2.59-.61l0.32-.1,5.4-1.73c0.22,0.38.43,0.72,0.64,1a11.68,11.68,0,0,0,1.27,1.62,7.66,7.66,0,0,0,4.82,2.42l0.17,0,0.45,0h0.92a26.14,26.14,0,0,0,3.16-.41,23.46,23.46,0,0,0,3.06-.81l0.57-.21,0.19-.07,12-4.63a7.92,7.92,0,0,0,.36,1.88,7.8,7.8,0,0,0,1.55,2.77,8,8,0,0,0,2.27,1.8,8.51,8.51,0,0,0,1.92.73,7.88,7.88,0,0,0,.91.17l0.86,0.1,0.89,0.1,0.8,0.07,0.58,0,6.39,0.54,4.8,0.45,1.48,0.14,1.33,0.12,1.2,0.1,1,0.08,0.42,0h1.39l0.36,0a7.41,7.41,0,0,0,.78-0.12l0.24-.06a7.68,7.68,0,0,0,1.82-.69l0.44-.25,1.92-1.19a22.06,22.06,0,0,0,3,1.68,22.65,22.65,0,0,0,4.3,1.5,25.23,25.23,0,0,0,4.58.65l1.35,0a24.1,24.1,0,0,0,4.2-.36,21.68,21.68,0,0,0,4.05-1.13,21,21,0,0,0,3.75-1.91,22,22,0,0,0,2.79-2.12l7.67-6.87q0.31,0.73.66,1.43a23,23,0,0,0,1.95,3.16,22.66,22.66,0,0,0,2.51,2.88,21.74,21.74,0,0,0,3,2.41c0.56,0.37,1.14.73,1.74,1.05,0,0.21.07,0.4,0.11,0.6a8.87,8.87,0,0,0,.53,1.71,8.27,8.27,0,0,0,1.07,1.81,8.15,8.15,0,0,0,3.61,2.64l0.19,0.07a11,11,0,0,0,1.87.44c0.45,0.07,1,.12,1.55.17s1,0.07,1.67.1l1.91,0.06h1.25c0.87,0,1.62,0,2.31-.06a19.33,19.33,0,0,0,2.16-.24,9.83,9.83,0,0,0,2.93-1,7.67,7.67,0,0,0,3.84-4.68l1.13-3.93,0.06-.05a13.21,13.21,0,0,0,1.64,1.58,14.37,14.37,0,0,0,2.82,1.78,17.37,17.37,0,0,0,3,1.11c0.58,0.15,1.2.29,1.89,0.4s1.25,0.18,1.91.24,1.3,0.11,2,.14,1.4,0,2.17,0h0.72a46.59,46.59,0,0,0,5.23-.34,27.94,27.94,0,0,0,4.73-1,18.62,18.62,0,0,0,3.12-1.27,7.78,7.78,0,0,0,2.86,1.42,8.53,8.53,0,0,0,2.42.27l3.4-.12,1.54,0,5-.17,2.32-.08,2-.06,1.63,0h1.75l1.68,0.08h0.51a8.08,8.08,0,0,0,3.95-1.16l0.09-.06a8,8,0,0,0,1.54-1.24,8.31,8.31,0,0,0,1.12-1.46l0.13-.22a8.82,8.82,0,0,0,.8-2c0.08-.26.15-0.54,0.21-0.84l5.24,4.57,0.13,0.18,0.18,0.09a7.71,7.71,0,0,0,5,1.85c0.22,0,.46,0,0.72,0l0.4,0,0.25,0L1739,314a26.75,26.75,0,0,0,3.07-.88,24.47,24.47,0,0,0,2.92-1.25,22.94,22.94,0,0,0,2.73-1.63,22.28,22.28,0,0,0,2.44-2q0.7-.65,1.33-1.34l3.06,1.84,0.2,0.11a20.92,20.92,0,0,0,3.14,1.51,21.32,21.32,0,0,0,3.89,1.07,23.76,23.76,0,0,0,4.53.34h0.57l0.49,0,0.53,0a25.42,25.42,0,0,0,4.52-.77,23,23,0,0,0,4.27-1.61,22.44,22.44,0,0,0,3.4-2.09l3.15,1.41,0.11,0,0.34,0.14a7.72,7.72,0,0,0,2.75.5h0.37l0.31,0,7.73-.78a7.88,7.88,0,0,0,2.95-.89,7.68,7.68,0,0,0,2.74-2.44l0-.07,4.25,1.53,0.23,0.08a7.86,7.86,0,0,0,2.44.39h0.14l0.52,0,0.48,0,0.36,0h0.46l0.61,0,0.57,0,0.47,0,0.59,0,0.47-.05,1.88-.25,0.34,0,0.47-.06a8.32,8.32,0,0,0,2-.46l0.32,0a13.73,13.73,0,0,0,2,0l0.73,0,0.72-.06,0.77-.08,2-.25,1.62-.23c0.54-.08,1-0.16,1.35-0.23a11.16,11.16,0,0,0,1.57-.42l0.15-.06a8,8,0,0,0,3.29-2.35q0.22-.27.42-0.55l5.39,1.46,0.5,0.12a8.26,8.26,0,0,0,1,.15l0.3,0h0.29a1.4,1.4,0,0,0,.25,0h0.12l1,0,1.05-.08,1.16-.11,1.35-.15,1.65-.21,1.37-.2c0.49-.08.89-0.15,1.21-0.22a10.89,10.89,0,0,0,1.41-.39,7.65,7.65,0,0,0,.91,0l0.35,0,0.3,0,7.65-1a8,8,0,0,0,2.75-.91l-0.2-.36,0.08,0,0.19,0.31,0.33-.19,1.79,0.39,0.54,0.09a9.21,9.21,0,0,0,1.73.08l0.31,0,0.45,0,0.33,0,0.4-.05,0.32,0,0.43-.07a7.8,7.8,0,0,0,1.25-.34l0.22-.08a8,8,0,0,0,1.94-1.12l0,0,0.82,0.16c0.23,0,.46.08,0.67,0.1a8.09,8.09,0,0,0,1.26,0h0.15l0.27,0,8.09-1.09a8.19,8.19,0,0,0,2.23-.64l0.26-.12h0l0.4-.2v0a7.73,7.73,0,0,0,2.19-1.88l0.28-.37,6.72,1.11a22.36,22.36,0,0,0,3.63.29l1,0,1-.06,0.94-.09,1-.13a26.41,26.41,0,0,0,4.5-1.09,23.79,23.79,0,0,0,6.3-3.24l8.92,1.21,0.15,0,0.35,0a7.37,7.37,0,0,0,1.88-.1l0.37-.08,0.33-.08,0.53-.15a29.06,29.06,0,0,0,3-1.19,26.78,26.78,0,0,0,2.83-1.52,25.5,25.5,0,0,0,2.62-1.86,25,25,0,0,0,2.34-2.16,21.87,21.87,0,0,0,2.34-2.88,18.53,18.53,0,0,0,1.77-3.29A16.8,16.8,0,0,0,1942.22,272Zm-80.75,27.8-0.52-.94,0.53,0.86Z" transform="translate(-1405.69 -162.89)"/><path class="cls-2" d="M1426.36,256.08H1427a0.42,0.42,0,0,1,.16.06,0.56,0.56,0,0,1,.14.12,1,1,0,0,1,.12.19,1.71,1.71,0,0,1,.1.25q0.12,0.42.33,1t0.51,1.38q0.3,0.78.68,1.73t0.86,2.08l0,0.07,0,0.06v0.05a0.21,0.21,0,0,1,0,0,0.48,0.48,0,0,1,0,.14,0.27,0.27,0,0,1-.06.1,0.24,0.24,0,0,1-.1.06l-0.13,0h-0.11l-0.1,0-0.13,0-0.16,0-0.2-.06-0.2-.06-0.17,0-0.15,0-0.12,0-0.26,0-0.25,0h-0.49l-0.49,0-0.47.07-0.45.11-0.43.16a3.1,3.1,0,0,0-.66.36,2.24,2.24,0,0,0-.48.47,2,2,0,0,0-.3.58,2.56,2.56,0,0,0-.13.69,2.86,2.86,0,0,0,.06.72,4.91,4.91,0,0,0,.26.83,8.31,8.31,0,0,0,.46.94q0.28,0.5.65,1l1.16,1.73,0.85,1.26,0.53,0.8,0.22,0.33a12.77,12.77,0,0,1,.62,1.3,10.07,10.07,0,0,1,.43,1.27,8.29,8.29,0,0,1,.23,1.23,7.34,7.34,0,0,1,0,1.2,8.87,8.87,0,0,1-.35,2.08,7.87,7.87,0,0,1-.82,1.84,8.33,8.33,0,0,1-1.28,1.61,10.53,10.53,0,0,1-1.74,1.38,13.16,13.16,0,0,1-1.81,1,13.88,13.88,0,0,1-2,.7,15.92,15.92,0,0,1-2.14.42,18.56,18.56,0,0,1-2.31.14h-0.29a0.65,0.65,0,0,1-.32-0.24,4.94,4.94,0,0,1-.46-0.64c-0.17-.28-0.37-0.63-0.59-1s-0.46-.9-0.73-1.44-0.5-1-.7-1.48-0.36-.83-0.49-1.16-0.23-.61-0.29-0.83a1.77,1.77,0,0,1-.09-0.5,0.24,0.24,0,0,1,0-.1,0.22,0.22,0,0,1,.07-0.08l0.11,0,0.15,0,1.49-.11,1.21-.13,0.94-.14a5.89,5.89,0,0,0,.67-0.16,4.64,4.64,0,0,0,1-.47,3.17,3.17,0,0,0,.76-0.65,2.78,2.78,0,0,0,.48-0.83,3.48,3.48,0,0,0,.2-1,3,3,0,0,0-.06-0.74,4.4,4.4,0,0,0-.24-0.81,7,7,0,0,0-.43-0.88,11,11,0,0,0-.62-1l-1.1-1.5-0.81-1.12-0.53-.75-0.25-.37a10.48,10.48,0,0,1-.61-1.27,9.64,9.64,0,0,1-.42-1.3,9.31,9.31,0,0,1-.23-1.33,9.6,9.6,0,0,1,0-1.36,7.4,7.4,0,0,1,.33-1.88,6.33,6.33,0,0,1,.79-1.64,6.94,6.94,0,0,1,1.26-1.4,9.34,9.34,0,0,1,1.72-1.15,12.76,12.76,0,0,1,1.63-.73,14.33,14.33,0,0,1,1.79-.52,17,17,0,0,1,2-.31A20.71,20.71,0,0,1,1426.36,256.08Z" transform="translate(-1405.69 -162.89)"/><path class="cls-2" d="M1459.84,265.84a18.86,18.86,0,0,1,1.83,2.75,16.81,16.81,0,0,1,1.93,6,18.62,18.62,0,0,1,.1,3.26,18.11,18.11,0,0,1-.45,3.2,14.56,14.56,0,0,1-1,2.84,13.25,13.25,0,0,1-1.51,2.49,13.88,13.88,0,0,1-4,3.53,12.87,12.87,0,0,1-2.15,1,13.38,13.38,0,0,1-2.32.6,15.29,15.29,0,0,1-2.5.2h-0.63l-0.64,0-0.65-.06-0.66-.08a18.64,18.64,0,0,1-3.24-.75,16.41,16.41,0,0,1-5.55-3.11,18.14,18.14,0,0,1-2.31-2.37,18.4,18.4,0,0,1-1.83-2.68,16.72,16.72,0,0,1-2-5.95,18.81,18.81,0,0,1-.15-3.27,18,18,0,0,1,.41-3.21,14.67,14.67,0,0,1,1-2.87,13.39,13.39,0,0,1,1.5-2.53,14.51,14.51,0,0,1,4.06-3.64,12.9,12.9,0,0,1,2.18-1,13.33,13.33,0,0,1,2.36-.63,15.1,15.1,0,0,1,2.54-.21h0.63l0.64,0,0.65,0.06,0.66,0.08a18.4,18.4,0,0,1,3.27.76,16.4,16.4,0,0,1,5.59,3.2A18.43,18.43,0,0,1,1459.84,265.84Zm-4.52,10.79a9.67,9.67,0,0,0,0-1.58,8.54,8.54,0,0,0-.87-2.92,9.23,9.23,0,0,0-.82-1.33,8.59,8.59,0,0,0-1.08-1.21,7.45,7.45,0,0,0-2.64-1.58,8.39,8.39,0,0,0-1.56-.37l-0.26,0-0.26,0h-0.51a6.27,6.27,0,0,0-1.21.11,5.86,5.86,0,0,0-1.13.34,6.24,6.24,0,0,0-1.06.57,7.24,7.24,0,0,0-1,.79,8,8,0,0,0-1,1.11,7.19,7.19,0,0,0-1.18,2.6,8.23,8.23,0,0,0-.2,1.49,10.19,10.19,0,0,0,.05,1.61,8.81,8.81,0,0,0,.31,1.5,8.43,8.43,0,0,0,.56,1.4,8.73,8.73,0,0,0,.81,1.29,8.34,8.34,0,0,0,1.08,1.17,7.59,7.59,0,0,0,1.24.9,7.71,7.71,0,0,0,1.41.63,8.81,8.81,0,0,0,1.58.37l0.26,0,0.26,0h0.51a6.43,6.43,0,0,0,1.2-.11,6,6,0,0,0,1.13-.33,6.22,6.22,0,0,0,1.06-.55,7.29,7.29,0,0,0,1-.77,7.69,7.69,0,0,0,1-1.09,6.91,6.91,0,0,0,.71-1.22,7.19,7.19,0,0,0,.46-1.35,8.3,8.3,0,0,0,.2-1.48" transform="translate(-1405.69 -162.89)"/><path class="cls-2" d="M1467.73,263h0.36l0.69,0.08,0.84,0.09,1,0.1,1.15,0.11,1.15,0.11,1,0.1,0.84,0.09,0.69,0.08a0.25,0.25,0,0,1,.13.07,0.94,0.94,0,0,1,.15.19,3,3,0,0,1,.17.31q0.09,0.19.2,0.43l5.9,14.79c0.1,0.25.21,0.47,0.3,0.66a4.14,4.14,0,0,0,.28.48,1.46,1.46,0,0,0,.26.3,0.47,0.47,0,0,0,.24.12,0.29,0.29,0,0,0,.17-0.09,2,2,0,0,0,.24-0.28c0.09-.13.2-0.28,0.31-0.47s0.24-.41.38-0.65l1.36-2.41,1.66-3,2-3.52,2.26-4.08a2.93,2.93,0,0,1,.2-0.33,1.53,1.53,0,0,1,.2-0.24,0.81,0.81,0,0,1,.2-0.14,0.51,0.51,0,0,1,.21,0l0.4,0.05,0.46,0.07,0.53,0.09,0.61,0.1,0.61,0.1,0.53,0.09,0.45,0.07,0.37,0.05,0.32,0,0.39,0,0.46,0,0.54,0,0.54,0,0.46,0,0.39,0,0.32,0a1.23,1.23,0,0,1,.29.07,0.64,0.64,0,0,1,.2.12,0.47,0.47,0,0,1,.12.18,0.62,0.62,0,0,1,0,.24c0,0.43,0,.92-0.08,1.45s-0.08,1.12-.12,1.76-0.1,1.33-.16,2.08-0.13,1.54-.2,2.39-0.14,1.64-.2,2.38-0.12,1.43-.16,2.06-0.09,1.22-.12,1.75-0.06,1-.08,1.43,0,0.84-.05,1.33,0,1,0,1.62,0,1.23,0,1.92,0,1.42,0,2.21,0,1.52,0,2.2,0,1.32,0,1.9,0,1.12,0,1.6,0,0.92-.05,1.3a1,1,0,0,1,0,.26,0.53,0.53,0,0,1-.11.19,0.43,0.43,0,0,1-.17.11,0.66,0.66,0,0,1-.23,0h-0.12l-7.76-1a0.79,0.79,0,0,1-.28-0.08,0.53,0.53,0,0,1-.19-0.16,0.68,0.68,0,0,1-.11-0.25,1.23,1.23,0,0,1,0-.33c0-.36,0-0.77.07-1.21s0.06-.95.1-1.49,0.08-1.12.13-1.75,0.1-1.31.17-2,0.12-1.4.17-2,0.1-1.22.13-1.76,0.07-1,.1-1.5,0-.86.07-1.23c0-.1,0-0.2,0-0.28a1.16,1.16,0,0,0,0-.21,0.4,0.4,0,0,0-.06-0.14,0.16,0.16,0,0,0-.08-0.07,1.53,1.53,0,0,0-.3.43q-0.24.41-.64,1.2t-1,2l-1.33,2.72-0.88,1.82-0.87,1.81-0.87,1.8-0.87,1.8a1.46,1.46,0,0,1-.12.21,1,1,0,0,1-.14.15,0.63,0.63,0,0,1-.15.1l-0.16,0h-0.12l-0.19,0-0.25,0-0.32,0a4.47,4.47,0,0,1-.51-0.09,2.39,2.39,0,0,1-.4-0.13,1.1,1.1,0,0,1-.28-0.17,0.57,0.57,0,0,1-.16-0.21q-0.27-.63-0.58-1.39t-0.67-1.67q-0.35-.91-0.75-2t-0.83-2.24l-0.88-2.35-0.77-2q-0.35-.92-0.65-1.66l-0.53-1.31,0-.06,0-.06-0.05-.07-0.07-.07-0.07.1a0.83,0.83,0,0,0-.05.14,1.25,1.25,0,0,0,0,.17c0,0.06,0,.13,0,0.2,0,0.35,0,.75,0,1.19s0,0.93,0,1.46,0,1.1,0,1.72,0,1.28,0,2,0,1.37,0,2,0,1.19,0,1.71,0,1,0,1.45,0,0.83,0,1.18a1.29,1.29,0,0,1,0,.3,0.63,0.63,0,0,1-.11.21,0.41,0.41,0,0,1-.17.13,0.57,0.57,0,0,1-.23,0l-7.45-.9-0.2,0-0.15,0-0.11-.06-0.07-.07a0.33,0.33,0,0,1,0-.09,0.71,0.71,0,0,1,0-.11,1.3,1.3,0,0,1,0-.14s0-.1,0-0.16c0-.39,0-0.83.06-1.31s0.06-1,.1-1.61,0.09-1.22.14-1.9,0.11-1.41.18-2.2,0.13-1.51.18-2.2,0.1-1.32.14-1.91,0.08-1.13.1-1.62,0-.93.06-1.33,0-.93,0-1.54,0-1.3,0-2.09,0-1.68,0-2.66,0-2.05,0-3.22q0-.45,0-1c0-.38,0-0.79,0-1.25s0-.94,0-1.47,0-1.09,0-1.7v-0.38a0.29,0.29,0,0,1,0-.15,0.28,0.28,0,0,1,.11-0.11,0.58,0.58,0,0,1,.19-0.07Z" transform="translate(-1405.69 -162.89)"/><path class="cls-2" d="M1529.88,274.08a18.07,18.07,0,0,1,1.83,2.67,16.29,16.29,0,0,1,2,5.92,19,19,0,0,1-.3,6.45,14.94,14.94,0,0,1-1,2.86,13.85,13.85,0,0,1-1.49,2.53,14.54,14.54,0,0,1-2,2.2,14.28,14.28,0,0,1-2.08,1.53,13.23,13.23,0,0,1-2.27,1.1,13.88,13.88,0,0,1-2.47.66,15.74,15.74,0,0,1-2.66.22H1519l-0.49,0-0.49,0-0.5,0a18.29,18.29,0,0,1-3.23-.62,15.84,15.84,0,0,1-2.92-1.17,15.64,15.64,0,0,1-2.61-1.72,17.31,17.31,0,0,1-2.31-2.28,17.59,17.59,0,0,1-1.84-2.6,16.11,16.11,0,0,1-1.28-2.81,16.47,16.47,0,0,1-.73-3,18.7,18.7,0,0,1-.17-3.25,18.08,18.08,0,0,1,.38-3.21,15,15,0,0,1,.93-2.89,13.87,13.87,0,0,1,1.47-2.57,14.84,14.84,0,0,1,2-2.25,14.43,14.43,0,0,1,2.1-1.6,13.34,13.34,0,0,1,2.3-1.14,13.62,13.62,0,0,1,2.5-.69,15.49,15.49,0,0,1,2.7-.23h0.48l0.48,0,0.49,0,0.49,0a18,18,0,0,1,3.25.64,15.69,15.69,0,0,1,5.57,3A17.59,17.59,0,0,1,1529.88,274.08ZM1525.46,285a9.64,9.64,0,0,0-.06-1.58,8.56,8.56,0,0,0-.31-1.48,8.32,8.32,0,0,0-.57-1.39,8.77,8.77,0,0,0-.83-1.29,8.23,8.23,0,0,0-1.08-1.17,7.22,7.22,0,0,0-1.24-.88,7.32,7.32,0,0,0-1.4-.6,8.23,8.23,0,0,0-1.56-.31l-0.2,0h-0.58a6.47,6.47,0,0,0-1.27.12,6,6,0,0,0-1.19.37,6.22,6.22,0,0,0-1.11.62,7.46,7.46,0,0,0-1,.86,8.28,8.28,0,0,0-1,1.14,7.32,7.32,0,0,0-1.15,2.63,8.3,8.3,0,0,0-.18,1.49,10.1,10.1,0,0,0,.06,1.6,8.55,8.55,0,0,0,.31,1.49,7.94,7.94,0,0,0,.56,1.37,8.17,8.17,0,0,0,.81,1.26,7.89,7.89,0,0,0,1.07,1.13,7.17,7.17,0,0,0,1.24.85,7.45,7.45,0,0,0,1.41.58,8.62,8.62,0,0,0,1.57.31l0.2,0h0.58a6.48,6.48,0,0,0,1.26-.12,6,6,0,0,0,1.19-.36,6.45,6.45,0,0,0,1.11-.6,7.57,7.57,0,0,0,1-.84,7.88,7.88,0,0,0,1-1.12,7.21,7.21,0,0,0,.7-1.24,7.41,7.41,0,0,0,.45-1.36,8.41,8.41,0,0,0,.19-1.48" transform="translate(-1405.69 -162.89)"/><path class="cls-2" d="M1548.48,271h0.38a0.4,0.4,0,0,1,.16,0,0.53,0.53,0,0,1,.14.11,0.83,0.83,0,0,1,.12.18,1.58,1.58,0,0,1,.1.24q0.13,0.41.35,1t0.52,1.33c0.2,0.5.44,1.06,0.7,1.67s0.56,1.28.88,2l0,0.06,0,0.06v0.05a0.44,0.44,0,0,1,0,0,0.46,0.46,0,0,1,0,.15,0.28,0.28,0,0,1-.07.11,0.26,0.26,0,0,1-.11.06l-0.15,0h-0.14l-0.15,0-0.17,0-0.19,0-0.2,0-0.17,0-0.15,0-0.12,0h-0.59a5.73,5.73,0,0,0-.6,0,5,5,0,0,0-.57.09,4.68,4.68,0,0,0-.54.15,4.28,4.28,0,0,0-.51.22,3.26,3.26,0,0,0-.64.4,2.4,2.4,0,0,0-.47.5,2.2,2.2,0,0,0-.29.59,2.63,2.63,0,0,0-.12.69,2.82,2.82,0,0,0,.08.71,4.52,4.52,0,0,0,.27.8,7.83,7.83,0,0,0,.46.9q0.28,0.47.66,1l1.17,1.64,0.85,1.2,0.54,0.75,0.22,0.31a12.14,12.14,0,0,1,.63,1.25,9.69,9.69,0,0,1,.44,1.23,8.06,8.06,0,0,1,.25,1.21,7.21,7.21,0,0,1,.05,1.18,9.25,9.25,0,0,1-.32,2.08,8.28,8.28,0,0,1-.78,1.88,8.91,8.91,0,0,1-1.24,1.68,11.29,11.29,0,0,1-1.7,1.48,13.92,13.92,0,0,1-1.78,1.09,14.45,14.45,0,0,1-1.94.82,16.16,16.16,0,0,1-2.11.56,18.77,18.77,0,0,1-2.27.29h-0.29a0.6,0.6,0,0,1-.32-0.22,4.56,4.56,0,0,1-.46-0.61q-0.27-.4-0.6-1t-0.74-1.38q-0.41-.79-0.71-1.42t-0.51-1.11c-0.13-.32-0.23-0.59-0.3-0.8a1.7,1.7,0,0,1-.09-0.49,0.28,0.28,0,0,1,0-.11,0.22,0.22,0,0,1,.07-0.08l0.11-.05,0.15,0,1.47-.21,1.2-.21c0.35-.07.66-0.14,0.93-0.2a6.38,6.38,0,0,0,.66-0.2,4.88,4.88,0,0,0,1-.54,3.38,3.38,0,0,0,.74-0.7,3,3,0,0,0,.46-0.86,3.51,3.51,0,0,0,.18-1,3,3,0,0,0-.07-0.73,4.31,4.31,0,0,0-.25-0.79,6.42,6.42,0,0,0-.44-0.84,9.9,9.9,0,0,0-.62-0.9l-1.11-1.41-0.82-1.06-0.53-.7-0.25-.35a9.79,9.79,0,0,1-.63-1.22,9.17,9.17,0,0,1-.43-1.26,9.05,9.05,0,0,1-.24-1.3,9.37,9.37,0,0,1,0-1.35,7.55,7.55,0,0,1,.29-1.89,6.76,6.76,0,0,1,.76-1.68,7.46,7.46,0,0,1,1.22-1.47,9.89,9.89,0,0,1,1.69-1.26,13,13,0,0,1,1.65-.85,14.55,14.55,0,0,1,1.82-.64,17.28,17.28,0,0,1,2-.44A20.87,20.87,0,0,1,1548.48,271Z" transform="translate(-1405.69 -162.89)"/><path class="cls-2" d="M1567.29,273.5h0.12l0.37,0,0.45,0,0.53,0.06,0.62,0.07,0.61,0.08,0.53,0.06,0.45,0,0.36,0,0.41,0,0.5,0,0.59,0,0.68,0h0.67l0.59,0,0.5,0,0.41,0,0.14,0a0.25,0.25,0,0,1,.1.09,0.34,0.34,0,0,1,0,.13,0.68,0.68,0,0,1,0,.18l0,0.28q-0.1,1-.21,2.31t-0.23,2.81q-0.12,1.53-.25,3.32t-0.27,3.82l-0.2,5.7q0,0.69,0,1.29t0,1.1c0,0.33,0,.64,0,0.91s0,0.51,0,.73c0,0,0,.09,0,0.13s0,0.09,0,.13,0,0.09,0,.13,0,0.09,0,.13a0.39,0.39,0,0,0,0,.12,0.31,0.31,0,0,0,.06.1l0.1,0.08,0.13,0.06h0.33l0.24,0,1.11,0.07,1.35,0.06,1.6,0,1.84,0,1.84,0,1.6,0,1.35,0.06,1.11,0.07a1,1,0,0,1,.26,0,0.5,0.5,0,0,1,.18.11,0.38,0.38,0,0,1,.11.16,0.59,0.59,0,0,1,0,.22q0,0.91-.1,1.76t-0.16,1.63q-0.1.78-.22,1.5t-0.29,1.37a1.43,1.43,0,0,1-.08.24,0.89,0.89,0,0,1-.11.19,0.59,0.59,0,0,1-.13.13,0.48,0.48,0,0,1-.16.07h-0.66l-0.23,0-1-.08-1.15-.1-1.29-.12-1.43-.14-1.78-.17-1.41-.13-1-.1-0.66-.06-6.52-.55-0.54,0-0.65-.06-0.76-.08-0.86-.11a1.19,1.19,0,0,1-.28-0.1,0.68,0.68,0,0,1-.19-0.15,0.54,0.54,0,0,1-.11-0.2,0.73,0.73,0,0,1,0-.25q0-.58,0-1.31t0.06-1.6q0-.87.07-1.89t0.09-2.19q0-1.17.09-2.19t0.07-1.9q0-.88.06-1.61t0-1.32c0-.42,0-0.89,0-1.41s0-1.1,0-1.73,0-1.31,0-2,0-1.52,0-2.37,0-1.63,0-2.37,0-1.42,0-2.06,0-1.21,0-1.74,0-1,0-1.43a0.5,0.5,0,0,1,0-.19,0.37,0.37,0,0,1,.11-0.14,0.46,0.46,0,0,1,.17-0.08A0.92,0.92,0,0,1,1567.29,273.5Z" transform="translate(-1405.69 -162.89)"/><path class="cls-2" d="M1616.72,280.47a17,17,0,0,1,1.87,2.56,15.66,15.66,0,0,1,1.3,2.79,16,16,0,0,1,.74,3,19,19,0,0,1-.2,6.44,15.45,15.45,0,0,1-.91,2.91,14.44,14.44,0,0,1-1.44,2.6,15.25,15.25,0,0,1-2,2.29,14.87,14.87,0,0,1-2.22,1.75,13.79,13.79,0,0,1-2.46,1.25,14.45,14.45,0,0,1-2.69.75,16.66,16.66,0,0,1-2.93.25h-1a17.65,17.65,0,0,1-3.22-.46,15.28,15.28,0,0,1-2.92-1A14.83,14.83,0,0,1,1596,304a16.29,16.29,0,0,1-2.33-2.14,16.63,16.63,0,0,1-1.87-2.49,15.36,15.36,0,0,1-1.32-2.74,16,16,0,0,1-.77-3,19,19,0,0,1,.11-6.44,15.43,15.43,0,0,1,.88-2.93,14.47,14.47,0,0,1,1.42-2.64,15.43,15.43,0,0,1,2-2.34,15,15,0,0,1,2.25-1.82,13.73,13.73,0,0,1,2.49-1.31,14.22,14.22,0,0,1,2.73-.78,16.44,16.44,0,0,1,3-.26h1a17.53,17.53,0,0,1,3.24.47,15.13,15.13,0,0,1,2.94,1,14.84,14.84,0,0,1,2.64,1.62A16.48,16.48,0,0,1,1616.72,280.47Zm-4.23,11.1a9.35,9.35,0,0,0-.08-1.57,8.16,8.16,0,0,0-.33-1.46,7.93,7.93,0,0,0-.59-1.35,8.37,8.37,0,0,0-.84-1.25,7.76,7.76,0,0,0-1.09-1.1,6.76,6.76,0,0,0-2.64-1.34,7.91,7.91,0,0,0-1.55-.23H1605a6.69,6.69,0,0,0-1.37.14,6.22,6.22,0,0,0-1.28.41,6.54,6.54,0,0,0-1.18.69,7.88,7.88,0,0,0-1.08,1,8.67,8.67,0,0,0-.94,1.19,7.75,7.75,0,0,0-.68,1.29,7.65,7.65,0,0,0-.42,1.39,8.27,8.27,0,0,0-.16,1.49,10.07,10.07,0,0,0,.09,1.59,8.33,8.33,0,0,0,.34,1.46,7.65,7.65,0,0,0,.58,1.34,7.85,7.85,0,0,0,.83,1.21,7.33,7.33,0,0,0,1.08,1.06,6.7,6.7,0,0,0,1.24.78,7.11,7.11,0,0,0,1.41.5,8.44,8.44,0,0,0,1.57.23h0.4a6.81,6.81,0,0,0,1.37-.13,6.22,6.22,0,0,0,1.27-.41,6.59,6.59,0,0,0,1.18-.68,8,8,0,0,0,1.09-.95,8.4,8.4,0,0,0,.93-1.16,7.49,7.49,0,0,0,1.1-2.65,8.58,8.58,0,0,0,.17-1.49" transform="translate(-1405.69 -162.89)"/><path class="cls-2" d="M1660.67,281.7a16.58,16.58,0,0,1,1.9,2.49,15.2,15.2,0,0,1,1.34,2.73,15.8,15.8,0,0,1,.78,3,18.28,18.28,0,0,1,.23,3.22,18.69,18.69,0,0,1-.24,2.76,15.93,15.93,0,0,1-.63,2.55,14.71,14.71,0,0,1-2.44,4.47,14.12,14.12,0,0,1-1.79,1.88,13.67,13.67,0,0,1-2.07,1.5,14.53,14.53,0,0,1-2.36,1.11,17,17,0,0,1-2.65.73,10.89,10.89,0,0,0,.6,1.08,12.07,12.07,0,0,0,.73,1c0.27,0.34.55,0.66,0.87,1s0.64,0.64,1,.94l0.09,0.08,0.06,0.07,0,0.07a0.17,0.17,0,0,1,0,.07,0.41,0.41,0,0,1-.27.33,2.84,2.84,0,0,1-.8.24,11.91,11.91,0,0,1-1.33.14q-0.8,0-1.87,0h-1.07l-1.78-.05-1.4-.08c-0.4,0-.74-0.07-1-0.11a4,4,0,0,1-.64-0.14,0.94,0.94,0,0,1-.23-0.12,0.85,0.85,0,0,1-.18-0.17,1.06,1.06,0,0,1-.13-0.23,1.47,1.47,0,0,1-.09-0.28,7.24,7.24,0,0,1-.1-0.72c0-.27,0-0.58-0.06-0.92s0-.72,0-1.13,0-.86,0-1.34a16.73,16.73,0,0,1-2.52-.88,14.87,14.87,0,0,1-2.25-1.24,14.14,14.14,0,0,1-2-1.6,15.18,15.18,0,0,1-1.7-2,15.56,15.56,0,0,1-1.33-2.16,15,15,0,0,1-1-2.34,16.06,16.06,0,0,1-.57-2.51,19.06,19.06,0,0,1,.09-5.91,15.66,15.66,0,0,1,.83-3,14.75,14.75,0,0,1,1.38-2.68,15.79,15.79,0,0,1,1.93-2.41,15.47,15.47,0,0,1,2.33-2,14.06,14.06,0,0,1,2.61-1.42,14.55,14.55,0,0,1,2.88-.85,17,17,0,0,1,3.15-.28h0.36a17.23,17.23,0,0,1,3.24.36,14.84,14.84,0,0,1,3,1,14.43,14.43,0,0,1,2.66,1.54A16.09,16.09,0,0,1,1660.67,281.7Zm-4,11.21a10.2,10.2,0,0,0-.1-1.6,8.42,8.42,0,0,0-.35-1.46,7.65,7.65,0,0,0-1.44-2.54,7.33,7.33,0,0,0-1.1-1,6.65,6.65,0,0,0-1.26-.76A6.9,6.9,0,0,0,1651,285a8.23,8.23,0,0,0-1.58-.18h-0.19a8.52,8.52,0,0,0-1.56.14,6.73,6.73,0,0,0-1.4.42,6.24,6.24,0,0,0-1.23.7,6.59,6.59,0,0,0-1.06,1,7.08,7.08,0,0,0-.84,1.16,7.35,7.35,0,0,0-.61,1.32,8.75,8.75,0,0,0-.37,1.48,10.88,10.88,0,0,0-.13,1.64,11.22,11.22,0,0,0,.11,1.66,8.89,8.89,0,0,0,.34,1.49,7.38,7.38,0,0,0,.57,1.32,7,7,0,0,0,.81,1.16,6.39,6.39,0,0,0,1.06,1,6.24,6.24,0,0,0,1.26.72,7.21,7.21,0,0,0,1.45.44,9.47,9.47,0,0,0,1.65.17h0.17a8.42,8.42,0,0,0,1.55-.14,6.73,6.73,0,0,0,1.39-.41,6.27,6.27,0,0,0,1.23-.69,6.71,6.71,0,0,0,1.07-1,7.31,7.31,0,0,0,.85-1.16,7.48,7.48,0,0,0,.61-1.31,8.63,8.63,0,0,0,.37-1.46,10.55,10.55,0,0,0,.14-1.62" transform="translate(-1405.69 -162.89)"/><path class="cls-2" d="M1693.54,277.49a1,1,0,0,1,.28,0,0.52,0.52,0,0,1,.2.1,0.4,0.4,0,0,1,.12.16,0.62,0.62,0,0,1,0,.23q0,0.63,0,1.42c0,0.53,0,1.1,0,1.74s0,1.31-.06,2.05-0.05,1.52-.08,2.36-0.06,1.63-.08,2.36,0,1.41-.06,2,0,1.2,0,1.73,0,1,0,1.41c0,0.11,0,.24,0,0.39s0,0.3,0,.48,0,0.36,0,.57,0,0.42,0,.65,0,0.45,0,.65,0,0.39,0,.56,0,0.33,0,.48,0,0.27,0,.39q0,1.37-.08,2.52a20.4,20.4,0,0,1-.24,2.09,10.74,10.74,0,0,1-.41,1.65,5.39,5.39,0,0,1-.58,1.22,5.7,5.7,0,0,1-1.67,1.61,10.33,10.33,0,0,1-2.58,1.16,20.64,20.64,0,0,1-3.49.72,38.9,38.9,0,0,1-4.4.28h-0.64q-1,0-1.86,0t-1.64-.11q-0.77-.07-1.42-0.18t-1.21-.25a9.86,9.86,0,0,1-1.74-.63,7.12,7.12,0,0,1-1.41-.88,6,6,0,0,1-1.08-1.13,6.12,6.12,0,0,1-.75-1.38,5.66,5.66,0,0,1-.26-0.88q-0.11-.51-0.19-1.17t-0.13-1.46q0-.81-0.06-1.75c0-.15,0-0.31,0-0.49s0-.38,0-0.6,0-.46,0-0.71,0-.53,0-0.82,0-.56,0-0.82,0-.49,0-0.71,0-.42,0-0.6,0-.34,0-0.49c0-.42,0-0.89,0-1.41s0-1.1-.07-1.72-0.06-1.31-.11-2-0.09-1.52-.14-2.36-0.1-1.63-.14-2.36-0.08-1.42-.11-2-0.05-1.21-.07-1.73,0-1,0-1.42a0.8,0.8,0,0,1,0-.23,0.43,0.43,0,0,1,.08-0.17,0.35,0.35,0,0,1,.14-0.1,0.57,0.57,0,0,1,.2,0h2l1,0,1.08,0,1.08,0,1,0h2a0.9,0.9,0,0,1,.24,0,0.45,0.45,0,0,1,.17.09,0.37,0.37,0,0,1,.1.15,0.59,0.59,0,0,1,0,.21q0,0.72,0,1.62t0,2q0,1.08,0,2.33t-0.05,2.69q0,1.43,0,2.68t0,2.32q0,1.07,0,2t0,1.6q0,0.85.06,1.55t0.15,1.28a7,7,0,0,0,.24,1,3.22,3.22,0,0,0,.32.72,2.65,2.65,0,0,0,.6.68,3.21,3.21,0,0,0,.85.49,5,5,0,0,0,1.1.29,8.55,8.55,0,0,0,1.35.1h0.13a6.51,6.51,0,0,0,2-.29,3.59,3.59,0,0,0,1.39-.82,3.37,3.37,0,0,0,.83-1.35,5.7,5.7,0,0,0,.27-1.87q0-.78,0-1.76t0-2.15q0-1.17-.07-2.55t-0.09-2.95q-0.05-1.57-.09-3t-0.07-2.56q0-1.19,0-2.17t0-1.78a1.17,1.17,0,0,1,0-.3,0.58,0.58,0,0,1,.1-0.21,0.44,0.44,0,0,1,.17-0.13,0.6,0.6,0,0,1,.24,0l0.73,0,0.9,0,1.06,0,1.23-.06,1.23-.06,1.06,0,0.9,0Z" transform="translate(-1405.69 -162.89)"/><path class="cls-2" d="M1720.17,300.16c0,0.15,0,.34,0,0.56s0,0.47-.06.75-0.06.6-.1,0.95-0.09.73-.14,1.14-0.11.85-.17,1.21-0.11.67-.16,0.94-0.1.49-.16,0.67a2,2,0,0,1-.15.4,1,1,0,0,1-.14.18,0.82,0.82,0,0,1-.16.13l-0.19.08-0.22,0H1718l-0.19,0-0.32,0-0.41,0h-2.47l-1.7,0-2,.06-2.35.08-0.94,0-1.15,0-1.35,0-1.55,0-1.55,0-1.34,0-1.14,0-0.93,0a1.25,1.25,0,0,1-.32,0,0.58,0.58,0,0,1-.23-0.11,0.46,0.46,0,0,1-.14-0.18,0.73,0.73,0,0,1-.05-0.26q0-.6,0-1.34t0-1.65q0-.9,0-2t0.05-2.26q0-1.2.05-2.26t0-2q0-.91,0-1.66t0-1.36c0-.41,0-0.91-0.06-1.5s-0.06-1.27-.11-2-0.1-1.62-.16-2.57-0.13-2-.2-3.11q0-.43-0.07-1c0-.36-0.06-0.76-0.09-1.19s-0.07-.9-0.11-1.41l-0.13-1.62,0-.31a0.59,0.59,0,0,1,0-.22,0.36,0.36,0,0,1,.09-0.16,0.46,0.46,0,0,1,.17-0.1,0.92,0.92,0,0,1,.26,0l0.92,0,1.13,0,1.33,0,1.54,0,1.54,0,1.33,0,1.12,0,0.92,0,0.91,0,1.11-.06,1.31-.08,1.52-.1,1.52-.09,1.32-.08,1.11-.06,0.91,0h0.1a2,2,0,0,1,.47,0,1.14,1.14,0,0,1,.37.15,0.86,0.86,0,0,1,.25.25,1.07,1.07,0,0,1,.14.36c0,0.08,0,.21.07,0.38s0.06,0.38.09,0.63,0.07,0.55.11,0.89,0.08,0.72.13,1.14,0.09,0.8.12,1.14,0.07,0.64.09,0.89,0,0.47.06,0.64,0,0.31,0,.4a0.67,0.67,0,0,1,0,.2,0.36,0.36,0,0,1-.08.14,0.35,0.35,0,0,1-.14.09,0.62,0.62,0,0,1-.19,0h-0.46l-1.7-.07-1.65,0-1.6,0h-3.61l-1,0-1,0a3.54,3.54,0,0,0-.53.05,2,2,0,0,0-.41.12,1.07,1.07,0,0,0-.3.18,0.75,0.75,0,0,0-.18.24,0.92,0.92,0,0,0,0,.21c0,0.09,0,.21,0,0.35s0,0.3,0,.49,0,0.4,0,.63,0,0.47,0,.67a4,4,0,0,0,.1.55,2.23,2.23,0,0,0,.15.42,1.13,1.13,0,0,0,.2.29,0.89,0.89,0,0,0,.21.16,1.37,1.37,0,0,0,.28.11l0.35,0.07,0.42,0h0.5l0.24,0,0.29,0,0.3,0,0.28,0,0.25,0h0.22l1.39-.06,1.39-.08,1.4-.1,1.41-.12,0.16,0,0.26,0,0.35,0,0.44-.05,0.35-.05,0.31,0,0.28,0h0.24a0.84,0.84,0,0,1,.23,0,0.43,0.43,0,0,1,.16.08,0.37,0.37,0,0,1,.1.14,0.57,0.57,0,0,1,0,.19,0.74,0.74,0,0,0,0,.21q0,0.21-.07.63c0,0.28-.06.63-0.1,1.05s-0.08.91-.13,1.48q0,0.43-.06.87c0,0.29,0,.58,0,0.86s0,0.58,0,.86,0,0.57,0,.86a0.43,0.43,0,0,1,0,.19,0.38,0.38,0,0,1-.12.14,0.59,0.59,0,0,1-.2.09l-0.28,0-2-.14h-2.06l-1,0-1.21,0-1.39,0-2.32.09-0.4,0a1.43,1.43,0,0,0-.31.09,0.71,0.71,0,0,0-.21.14,0.49,0.49,0,0,0-.12.19,1.18,1.18,0,0,0,0,.13c0,0.06,0,.15,0,0.26s0,0.25,0,.4,0,0.34,0,.54,0,0.52,0,.74,0,0.42.05,0.6a4.12,4.12,0,0,0,.08.45,1.5,1.5,0,0,0,.1.3,0.92,0.92,0,0,0,.32.36,2.09,2.09,0,0,0,.58.26,5.07,5.07,0,0,0,.83.17c0.32,0,.68.07,1.09,0.08h0.18l0.59,0,1,0,1.41-.05,0.65,0,0.79-.07,0.93-.1,1.07-.13,1.07-.13,0.92-.1,0.78-.07,0.64,0a0.47,0.47,0,0,1,.21,0,0.39,0.39,0,0,1,.15.14,0.69,0.69,0,0,1,.09.24A1.67,1.67,0,0,1,1720.17,300.16Z" transform="translate(-1405.69 -162.89)"/><path class="cls-2" d="M1744.48,274.08a0.44,0.44,0,0,1,.16,0,0.47,0.47,0,0,1,.14.09,0.78,0.78,0,0,1,.13.15,1.45,1.45,0,0,1,.11.21q0.16,0.39.42,0.94t0.62,1.25q0.36,0.7.81,1.56l1,1.86,0,0.06,0,0.05v0.05a0.25,0.25,0,0,1,0,0,0.49,0.49,0,0,1,0,.16,0.29,0.29,0,0,1-.07.12,0.33,0.33,0,0,1-.12.08l-0.17,0h-1.24a6.39,6.39,0,0,0-.77.09,5.73,5.73,0,0,0-.71.18,5.11,5.11,0,0,0-.66.27,4.89,4.89,0,0,0-.61.35,3.63,3.63,0,0,0-.61.5,2.66,2.66,0,0,0-.43.56,2.41,2.41,0,0,0-.25.63,2.68,2.68,0,0,0-.07.7,2.73,2.73,0,0,0,.13.69,4.34,4.34,0,0,0,.32.76,7.21,7.21,0,0,0,.53.82,11.32,11.32,0,0,0,.73.88l1.28,1.45,0.93,1.06,0.59,0.67,0.24,0.28a10.8,10.8,0,0,1,.72,1.14,8.79,8.79,0,0,1,.53,1.15,7.59,7.59,0,0,1,.33,1.16,7.18,7.18,0,0,1,.14,1.17,9.37,9.37,0,0,1-.16,2.12,8.93,8.93,0,0,1-.64,2,10,10,0,0,1-1.11,1.86,12.66,12.66,0,0,1-1.58,1.73,15.27,15.27,0,0,1-1.68,1.35,15.81,15.81,0,0,1-1.86,1.11,17.19,17.19,0,0,1-2,.87,19.09,19.09,0,0,1-2.23.64l-0.08,0h-0.2a0.61,0.61,0,0,1-.35-0.18,4.09,4.09,0,0,1-.5-0.53q-0.29-.36-0.66-0.89t-0.83-1.25q-0.46-.72-0.81-1.3c-0.23-.39-0.42-0.73-0.58-1A8.16,8.16,0,0,1,1733,301a1.6,1.6,0,0,1-.13-0.47,0.27,0.27,0,0,1,0-.11,0.26,0.26,0,0,1,.06-0.09l0.1-.07,0.14-.05,1.44-.43,1.17-.39c0.34-.12.65-0.24,0.9-0.34a6.27,6.27,0,0,0,.64-0.3,5.38,5.38,0,0,0,1-.69,3.76,3.76,0,0,0,.68-0.8,3.24,3.24,0,0,0,.39-0.92,3.69,3.69,0,0,0,.1-1,2.88,2.88,0,0,0-.12-0.71,4,4,0,0,0-.31-0.74,5.91,5.91,0,0,0-.5-0.77,9,9,0,0,0-.68-0.8l-1.2-1.23-0.89-.93-0.58-.62-0.27-.31a8.73,8.73,0,0,1-.71-1.11,8.41,8.41,0,0,1-.52-1.18,8.57,8.57,0,0,1-.33-1.26,9.24,9.24,0,0,1-.15-1.33,7.73,7.73,0,0,1,.16-1.92,7.33,7.33,0,0,1,.63-1.79,8.39,8.39,0,0,1,1.1-1.65,11.09,11.09,0,0,1,1.58-1.51,14.49,14.49,0,0,1,1.57-1.1,15.86,15.86,0,0,1,1.75-.92,18.36,18.36,0,0,1,1.94-.74q1-.33,2.12-0.56l0.11,0h0.26Z" transform="translate(-1405.69 -162.89)"/><path class="cls-2" d="M1782.25,287.41a18.76,18.76,0,0,1-.16,3.26,16.19,16.19,0,0,1-.71,3,15.56,15.56,0,0,1-1.26,2.78,16.72,16.72,0,0,1-1.82,2.55,16.46,16.46,0,0,1-2.29,2.2,15,15,0,0,1-2.6,1.64,15.56,15.56,0,0,1-2.91,1.09,18.07,18.07,0,0,1-3.23.55l-0.38,0-0.38,0h-0.74a16,16,0,0,1-2.78-.24,14,14,0,0,1-2.58-.7,13.73,13.73,0,0,1-2.37-1.18,14.88,14.88,0,0,1-2.17-1.65,15.14,15.14,0,0,1-2-2.24,14.2,14.2,0,0,1-1.5-2.55,15,15,0,0,1-1-2.87,18,18,0,0,1-.43-3.19,18.6,18.6,0,0,1,.11-3.25,16.17,16.17,0,0,1,.68-3,15.61,15.61,0,0,1,1.24-2.82,17,17,0,0,1,1.81-2.6,16.58,16.58,0,0,1,2.29-2.27,15.12,15.12,0,0,1,2.62-1.7,15.51,15.51,0,0,1,2.94-1.14,17.81,17.81,0,0,1,3.26-.57l0.38,0,0.38,0h0.74a15.84,15.84,0,0,1,2.81.24,14,14,0,0,1,2.6.73,13.77,13.77,0,0,1,2.4,1.21,15.18,15.18,0,0,1,2.19,1.7,15.5,15.5,0,0,1,2,2.31,14.46,14.46,0,0,1,1.48,2.6,15.3,15.3,0,0,1,.94,2.9A17.93,17.93,0,0,1,1782.25,287.41Zm-10.17,6.22a9.23,9.23,0,0,0,.85-1.28,8.15,8.15,0,0,0,.59-1.36,7.94,7.94,0,0,0,.33-1.43,8.65,8.65,0,0,0,.07-1.51,9.25,9.25,0,0,0-.19-1.55,7.8,7.8,0,0,0-.43-1.41,7.3,7.3,0,0,0-.68-1.27,7.59,7.59,0,0,0-.92-1.13,7,7,0,0,0-1-.87,6.2,6.2,0,0,0-2.38-1,7.15,7.15,0,0,0-1.35-.12h-0.69a7.12,7.12,0,0,0-1.48.28,6.64,6.64,0,0,0-1.35.58,7.09,7.09,0,0,0-1.22.88,8.64,8.64,0,0,0-1.09,1.17,9.42,9.42,0,0,0-.86,1.31,8.4,8.4,0,0,0-.59,1.38,8,8,0,0,0-.33,1.44,8.6,8.6,0,0,0-.06,1.51,10,10,0,0,0,.19,1.58,8,8,0,0,0,.43,1.41,7.13,7.13,0,0,0,.67,1.25,7.24,7.24,0,0,0,.91,1.1,6.79,6.79,0,0,0,1,.83,6.19,6.19,0,0,0,1.13.59,6.37,6.37,0,0,0,1.24.35,7.61,7.61,0,0,0,1.35.12h0.72a7.45,7.45,0,0,0,1.48-.27,6.74,6.74,0,0,0,1.35-.57,7.21,7.21,0,0,0,1.23-.86,8.68,8.68,0,0,0,1.1-1.16" transform="translate(-1405.69 -162.89)"/><path class="cls-2" d="M1813.4,268.87a0.43,0.43,0,0,1,.19,0,0.34,0.34,0,0,1,.14.12,0.61,0.61,0,0,1,.08.2,1.41,1.41,0,0,1,0,.28q0,0.63,0,1.41t0,1.72q0,0.94,0,2t0,2.34q0,1.25,0,2.34t0,2q0,0.93,0,1.71t0,1.4l0.6,14.17a0.75,0.75,0,0,1,0,.26,0.49,0.49,0,0,1-.11.19,0.54,0.54,0,0,1-.19.13,1,1,0,0,1-.28.06l-0.29,0-0.36,0-0.43.06-0.5.07-0.5.07-0.43.06-0.36,0-0.29,0-0.32,0-0.39,0-0.46,0-0.54,0-0.54,0-0.46,0-0.39,0-0.32,0a0.73,0.73,0,0,1-.23,0,1.08,1.08,0,0,1-.24-0.11,1.9,1.9,0,0,1-.25-0.19,3.57,3.57,0,0,1-.26-0.27l-1.1-1.25-1.62-1.83-2.14-2.42-2.67-3-0.91-1-1.12-1.25L1795.6,287l-1.55-1.69-0.06-.06-0.08-.06-0.1-.06-0.12-.05-0.07.09a0.57,0.57,0,0,0,0,.11,0.71,0.71,0,0,0,0,.13,1.1,1.1,0,0,0,0,.15q0,0.63.08,1.41t0.12,1.72q0.07,0.94.15,2t0.18,2.33q0.1,1.24.18,2.33t0.15,2q0.07,0.93.11,1.7t0.08,1.39a1.34,1.34,0,0,1,0,.33,0.65,0.65,0,0,1-.1.24,0.48,0.48,0,0,1-.18.16,0.66,0.66,0,0,1-.25.07l-7.55.76h-0.11a0.65,0.65,0,0,1-.23,0,0.44,0.44,0,0,1-.17-0.11,0.53,0.53,0,0,1-.11-0.19,1,1,0,0,1,0-.26c0-.38,0-0.82-0.06-1.3s0-1,0-1.6,0-1.22,0-1.9,0-1.42,0-2.2,0-1.52,0-2.2,0-1.32,0-1.91,0-1.13,0-1.62,0-.93-0.06-1.32-0.05-.88-0.09-1.39-0.08-1.08-.13-1.7-0.11-1.29-.18-2-0.14-1.5-.22-2.32-0.16-1.6-.22-2.33-0.13-1.4-.18-2-0.1-1.19-.13-1.71-0.07-1-.09-1.4a0.42,0.42,0,0,1,0-.22,0.45,0.45,0,0,1,.15-0.17,0.91,0.91,0,0,1,.26-0.12,2.1,2.1,0,0,1,.38-0.07l0.68-.08,0.75-.11,0.82-.14,0.9-.17,0.27-.06,0.38-.1,0.49-.13L1790,271l0.52-.14,0.46-.11,0.41-.08,0.35,0a0.39,0.39,0,0,1,.16,0,1,1,0,0,1,.2.12l0.23,0.21,0.27,0.29,8.79,10.3,0.66,0.77,0.81,0.93,1,1.09,1.1,1.25,0.26,0.25,0.24,0.18a1.06,1.06,0,0,0,.22.11,0.6,0.6,0,0,0,.2,0,0.2,0.2,0,0,0,.15-0.12,1,1,0,0,0,.09-0.33,4.26,4.26,0,0,0,0-.53q0-.32,0-0.74t-0.07-1.28q0-.71-0.12-1.57t-0.17-1.85q-0.1-1-.21-2.14t-0.21-2.15q-0.09-1-.16-1.87c0-.58-0.09-1.1-0.12-1.58s-0.06-.92-0.08-1.3a1.94,1.94,0,0,1,0-.36,0.86,0.86,0,0,1,.08-0.26,0.43,0.43,0,0,1,.14-0.17,0.42,0.42,0,0,1,.2-0.07l0.75-.08,0.92-.11,1.08-.14,1.25-.18,1.25-.18,1.09-.15,0.92-.12Z" transform="translate(-1405.69 -162.89)"/><path class="cls-2" d="M1847.91,294.82a0.46,0.46,0,0,1,0,.18,0.51,0.51,0,0,1-.1.16,0.75,0.75,0,0,1-.17.14l-0.24.12a4,4,0,0,1-.5.13l-0.85.15-1.19.17-1.54.19-1.23.14-1,.1-0.83.06-0.63,0h-0.32a1.21,1.21,0,0,1-.34-0.08,1,1,0,0,1-.28-0.17,1,1,0,0,1-.22-0.26,1.48,1.48,0,0,1-.15-0.35q-0.23-.75-0.42-1.32t-0.36-1a4.62,4.62,0,0,0-.3-0.62,0.64,0.64,0,0,0-.24-0.26h-0.2l-0.7,0-1.18.11-1.66.17-2.14.25-1.65.21-1.21.18-0.77.15a0.91,0.91,0,0,0-.33.12,1.09,1.09,0,0,0-.18.29,3.83,3.83,0,0,0-.18.5c-0.06.2-.12,0.43-0.18,0.7s-0.12.57-.18,0.9-0.11.58-.18,0.81a4.31,4.31,0,0,1-.21.61,1.76,1.76,0,0,1-.24.41,0.68,0.68,0,0,1-.28.21,4.76,4.76,0,0,1-.59.14l-1,.17-1.46.21-1.9.23-0.62.07-0.56,0-0.5,0h-0.43l-0.55,0a2.21,2.21,0,0,1-.4-0.07,0.66,0.66,0,0,1-.24-0.12,0.23,0.23,0,0,1-.09-0.17,7.22,7.22,0,0,1,.25-1.1q0.25-1,.77-2.74t1.3-4.4q0.79-2.62,1.84-6.07l2-6.66q0.89-2.92,1.51-5t1-3.31q0.36-1.23.46-1.6a3.82,3.82,0,0,1,.12-0.38,1.61,1.61,0,0,1,.14-0.28,0.68,0.68,0,0,1,.15-0.17,0.35,0.35,0,0,1,.17-0.07l0.34,0,0.42,0,0.5,0,0.59,0,0.59,0,0.51,0,0.43,0,0.35,0,0.34,0,0.41-.06,0.47-.08,0.54-.1,0.54-.1,0.47-.08,0.4-.06,0.33,0a0.65,0.65,0,0,1,.23,0,0.71,0.71,0,0,1,.21.12,1.2,1.2,0,0,1,.19.2,2.25,2.25,0,0,1,.18.28q0.3,0.54.9,1.75t1.49,3.08q0.89,1.87,2.07,4.4t2.65,5.7q1.47,3.19,2.57,5.62t1.83,4.08q0.73,1.66,1.1,2.55A6.3,6.3,0,0,1,1847.91,294.82ZM1834.19,285l0-.06a0.68,0.68,0,0,0,0-.07,0.72,0.72,0,0,0,0-.08s0-.06,0-0.09a2.85,2.85,0,0,0-.09-0.51c-0.05-.22-0.13-0.49-0.23-0.81s-0.23-.69-0.37-1.1-0.32-.89-0.52-1.4-0.37-1-.54-1.37-0.32-.77-0.46-1.09-0.26-.59-0.37-0.82-0.21-.41-0.29-0.54c-0.07.17-.15,0.38-0.24,0.65s-0.19.58-.3,0.94-0.23.77-.37,1.23l-0.43,1.51q-0.25.88-.44,1.58t-0.31,1.21c-0.08.34-.14,0.62-0.18,0.84a2.26,2.26,0,0,0,0,.48,0.2,0.2,0,0,0,.06.13,0.39,0.39,0,0,0,.15.09l0.25,0.06,0.34,0h0.54l0.4,0,0.51,0,0.62-.07,0.72-.08,0.64-.1a3.67,3.67,0,0,0,.48-0.12,1.33,1.33,0,0,0,.32-0.15,0.38,0.38,0,0,0,.15-0.17" transform="translate(-1405.69 -162.89)"/><path class="cls-2" d="M1880.8,260.06a0.74,0.74,0,0,1,.21,0,0.43,0.43,0,0,1,.16.08,0.37,0.37,0,0,1,.1.14,0.6,0.6,0,0,1,0,.2q0,0.65.06,1.46t0,1.78q0,1,0,2.1t0,2.42q0,1.29,0,2.41t0,2.09q0,1,0,1.76t0.06,1.44q0,0.59.08,1.33t0.12,1.62q0.07,0.88.15,1.91t0.19,2.2q0.11,1.17.19,2.19t0.15,1.89q0.07,0.87.12,1.6t0.08,1.3a1,1,0,0,1,0,.3,0.6,0.6,0,0,1-.11.22,0.55,0.55,0,0,1-.19.15,0.89,0.89,0,0,1-.28.08l-7.78,1h-0.13a0.58,0.58,0,0,1-.23,0,0.44,0.44,0,0,1-.17-0.13,0.59,0.59,0,0,1-.11-0.21,1.19,1.19,0,0,1,0-.29c0-.36,0-0.77-0.05-1.22s0-1,0-1.5,0-1.13,0-1.77,0-1.32,0-2,0-1.41,0-2.05,0-1.23,0-1.78,0-1,0-1.51,0-.87-0.05-1.23a2.8,2.8,0,0,0,0-.28,1.09,1.09,0,0,0,0-.2,0.36,0.36,0,0,0-.07-0.12,0.13,0.13,0,0,0-.09,0,1.93,1.93,0,0,0-.25.5q-0.19.46-.52,1.35t-0.78,2.19q-0.46,1.31-1,3l-0.69,2-0.69,2-0.69,2-0.69,2a1.91,1.91,0,0,1-.11.24,1.24,1.24,0,0,1-.12.19,0.8,0.8,0,0,1-.14.14,0.62,0.62,0,0,1-.16.09l-0.09,0-0.18,0-0.26,0-0.34,0-0.16,0h-0.42l-0.29,0-0.23-.05a0.64,0.64,0,0,1-.17-0.09,0.46,0.46,0,0,1-.12-0.12q-0.33-.55-0.71-1.23t-0.82-1.48l-0.93-1.74-1-2-1.1-2.09-1-1.78-0.8-1.47-0.66-1.16,0,0,0-.05-0.06-.05-0.07-.05a0.67,0.67,0,0,0-.06.12,1,1,0,0,0,0,.15,1.15,1.15,0,0,0,0,.17,2,2,0,0,0,0,.2q0,0.53.08,1.19t0.11,1.45q0.06,0.79.13,1.71t0.16,2q0.09,1.05.17,2t0.14,1.7q0.06,0.79.1,1.44t0.08,1.18a1.29,1.29,0,0,1,0,.33,0.67,0.67,0,0,1-.1.25,0.55,0.55,0,0,1-.18.17,0.8,0.8,0,0,1-.27.08l-7.32,1h-0.35l-0.09,0-0.07,0,0,0,0-.08,0-.1a1.26,1.26,0,0,1,0-.13,1.43,1.43,0,0,1,0-.16c0-.39,0-0.83-0.07-1.31s0-1-.06-1.61,0-1.23,0-1.91,0-1.43,0-2.21,0-1.53,0-2.22,0-1.33,0-1.92,0-1.13-.06-1.62,0-.93-0.07-1.33-0.06-.93-0.11-1.53-0.1-1.29-.17-2.08-0.15-1.66-.23-2.63-0.19-2-.3-3.18c0-.3,0-0.64-0.08-1s-0.07-.79-0.12-1.23-0.09-.93-0.15-1.45-0.12-1.08-.19-1.67l0-.37a0.32,0.32,0,0,1,0-.2,0.47,0.47,0,0,1,.16-0.16,1.23,1.23,0,0,1,.29-0.12,3,3,0,0,1,.42-0.09l0.69-.1,0.84-.13,1-.16,1.14-.19,1.14-.19,1-.16,0.84-.13,0.69-.1a0.27,0.27,0,0,1,.15.05,0.87,0.87,0,0,1,.17.15,2.72,2.72,0,0,1,.2.26l0.23,0.36,7.27,13.1q0.18,0.31.35,0.55a3.73,3.73,0,0,0,.31.39,1.35,1.35,0,0,0,.28.24,0.48,0.48,0,0,0,.24.08,0.31,0.31,0,0,0,.17-0.13,2,2,0,0,0,.22-0.34c0.08-.15.17-0.33,0.27-0.55s0.21-.47.33-0.76l1.11-2.74,1.35-3.36,1.59-4,1.84-4.63a3.38,3.38,0,0,1,.17-0.4,1.81,1.81,0,0,1,.19-0.3,0.89,0.89,0,0,1,.2-0.19,0.51,0.51,0,0,1,.22-0.08l0.36,0,0.45,0,0.53-.05,0.61-.06,0.61-.05,0.53-.05,0.46,0,0.37,0,0.31,0,0.39-.07,0.46-.1,0.54-.12,0.53-.12,0.46-.1,0.39-.07,0.32,0h0.18Z" transform="translate(-1405.69 -162.89)"/><path class="cls-2" d="M1916.55,270.3a19.06,19.06,0,0,1-.11,3.3,17,17,0,0,1-.67,3.1,16.7,16.7,0,0,1-1.24,2.9,18.39,18.39,0,0,1-1.8,2.71,18.08,18.08,0,0,1-2.28,2.38,16.42,16.42,0,0,1-2.61,1.85,16.74,16.74,0,0,1-2.93,1.31,19.11,19.11,0,0,1-3.26.79l-0.7.09-0.69.07-0.68,0h-0.67a14.94,14.94,0,0,1-2.45-.19,13.46,13.46,0,0,1-2.29-.58,13.15,13.15,0,0,1-2.13-1,14.13,14.13,0,0,1-2-1.37,14,14,0,0,1-2.08-2.1,13.23,13.23,0,0,1-1.55-2.46,14.38,14.38,0,0,1-1-2.82,17.65,17.65,0,0,1-.49-3.18,18.9,18.9,0,0,1,.07-3.28,16.76,16.76,0,0,1,1.85-6,18.54,18.54,0,0,1,1.79-2.75,18.32,18.32,0,0,1,2.29-2.46,16.41,16.41,0,0,1,5.57-3.27,18.68,18.68,0,0,1,3.28-.81l0.7-.1,0.69-.07,0.68,0h0.67a14.89,14.89,0,0,1,2.48.2,13.33,13.33,0,0,1,2.32.61,13.17,13.17,0,0,1,2.16,1,14.23,14.23,0,0,1,2,1.41,14.4,14.4,0,0,1,2.09,2.18,13.61,13.61,0,0,1,1.54,2.52,14.59,14.59,0,0,1,1,2.86A17.78,17.78,0,0,1,1916.55,270.3Zm-10.2,7a10.23,10.23,0,0,0,.84-1.36,8.88,8.88,0,0,0,.58-1.41,8.31,8.31,0,0,0,.31-1.47,8.61,8.61,0,0,0,0-1.53,9.24,9.24,0,0,0-.21-1.55,7.58,7.58,0,0,0-.46-1.39,6.92,6.92,0,0,0-.7-1.23,7.13,7.13,0,0,0-1-1.07,6.6,6.6,0,0,0-.95-0.73,5.92,5.92,0,0,0-1-.52,6.06,6.06,0,0,0-1.12-.31,6.8,6.8,0,0,0-1.2-.1h-0.3l-0.31,0-0.31,0-0.32,0a7.55,7.55,0,0,0-1.5.39,7.1,7.1,0,0,0-1.36.68,7.76,7.76,0,0,0-1.22,1,9.39,9.39,0,0,0-1.08,1.26,10.3,10.3,0,0,0-.85,1.39,9,9,0,0,0-.58,1.43,8.37,8.37,0,0,0-.31,1.48,8.73,8.73,0,0,0,0,1.53,9.7,9.7,0,0,0,.22,1.57,7.62,7.62,0,0,0,.46,1.39,6.6,6.6,0,0,0,1.63,2.25,6.19,6.19,0,0,0,.92.7,5.93,5.93,0,0,0,2.11.79,7,7,0,0,0,1.19.1h0.32l0.33,0,0.33,0,0.34,0a7.6,7.6,0,0,0,1.49-.38,7.33,7.33,0,0,0,1.36-.67,7.82,7.82,0,0,0,1.23-1,9.55,9.55,0,0,0,1.1-1.25" transform="translate(-1405.69 -162.89)"/><path class="cls-2" d="M1930.14,251.49a0.53,0.53,0,0,1,.18,0,0.47,0.47,0,0,1,.15.08,0.62,0.62,0,0,1,.13.14,1.27,1.27,0,0,1,.11.19c0.11,0.25.26,0.55,0.45,0.9s0.4,0.75.66,1.19,0.55,0.94.87,1.48l1.08,1.77,0,0.06,0,0.05v0a0.25,0.25,0,0,1,0,0,0.48,0.48,0,0,1,0,.17,0.34,0.34,0,0,1-.07.13,0.37,0.37,0,0,1-.12.09l-0.17.05h-1.13l-0.12,0a6.68,6.68,0,0,0-.78.18,6.09,6.09,0,0,0-.72.26,5.71,5.71,0,0,0-.67.34,5.56,5.56,0,0,0-.61.42,4.08,4.08,0,0,0-.61.57,3.07,3.07,0,0,0-.42.62,2.65,2.65,0,0,0-.23.67,2.77,2.77,0,0,0,0,.72,2.57,2.57,0,0,0,.15.69,3.86,3.86,0,0,0,.35.73,6.22,6.22,0,0,0,.55.77,10.45,10.45,0,0,0,.76.81l1.34,1.33,1,1,0.62,0.61,0.25,0.25a9.89,9.89,0,0,1,.76,1.08,8.22,8.22,0,0,1,.56,1.11,7.22,7.22,0,0,1,.37,1.14,7,7,0,0,1,.17,1.17,9.52,9.52,0,0,1-.71,4.24,11.16,11.16,0,0,1-1.08,2,14.52,14.52,0,0,1-1.56,1.92,17.69,17.69,0,0,1-3.54,2.87,19.3,19.3,0,0,1-2.06,1.1,21.52,21.52,0,0,1-2.25.88l-0.08,0-0.08,0-0.07,0h-0.06a0.66,0.66,0,0,1-.37-0.16,3.91,3.91,0,0,1-.53-0.49q-0.3-.33-0.69-0.82t-0.86-1.16q-0.48-.68-0.85-1.24t-0.62-1a7.33,7.33,0,0,1-.38-0.72,1.53,1.53,0,0,1-.14-0.46,0.29,0.29,0,0,1,0-.11,0.29,0.29,0,0,1,.06-0.1l0.1-.08,0.14-.07,1.45-.59L1922,278q0.52-.24.91-0.45a7.35,7.35,0,0,0,.64-0.37,6.22,6.22,0,0,0,1-.8,4.25,4.25,0,0,0,.67-0.88,3.56,3.56,0,0,0,.38-1,3.76,3.76,0,0,0,.08-1.06,2.83,2.83,0,0,0-.14-0.71,3.68,3.68,0,0,0-.33-0.72,5.36,5.36,0,0,0-.52-0.73,7.93,7.93,0,0,0-.71-0.74l-1.25-1.12-0.92-.84-0.6-.56-0.28-.28a8,8,0,0,1-.75-1,7.64,7.64,0,0,1-.56-1.14,8.1,8.1,0,0,1-.37-1.23A9.22,9.22,0,0,1,1919,263a7.85,7.85,0,0,1,.7-3.83,9.36,9.36,0,0,1,1.08-1.78,12.69,12.69,0,0,1,1.56-1.69,16.52,16.52,0,0,1,1.57-1.28,18,18,0,0,1,1.76-1.12,20.55,20.55,0,0,1,1.95-1q1-.44,2.14-0.8l0.12,0,0.1,0,0.09,0h0.07Z" transform="translate(-1405.69 -162.89)"/><path class="cls-2" d="M1909.9,196.08q-2.66.46-5.11,1t-4.72,1.1q-2.27.58-4.36,1.21t-4,1.31l0.39,1.14,0.36,1.07,0.33,1,0.3,0.92q-0.42-1.31-1-2.93t-1.22-3.56q-0.67-1.94-1.47-4.18l-1.71-4.79q-0.91-2.54-1.69-4.75t-1.43-4.09q-0.65-1.88-1.18-3.45t-0.93-2.82a1.4,1.4,0,0,1-.08-0.46,0.68,0.68,0,0,1,.1-0.35,0.69,0.69,0,0,1,.27-0.24,1.44,1.44,0,0,1,.45-0.14l0.82-.12,1-.13,1.19-.15,1.38-.16,1.38-.16,1.19-.15,1-.14,0.81-.12,0.8-.14,1-.19,1.13-.24,1.29-.28,1.29-.28,1.13-.24,1-.19,0.8-.15,0.12,0h0.35a1.65,1.65,0,0,1,.43.05,1.15,1.15,0,0,1,.35.16,1.06,1.06,0,0,1,.27.26,1.41,1.41,0,0,1,.19.36q0.44,1.24,1,2.8t1.12,3.45q0.6,1.89,1.28,4.11t1.44,4.78l0.84,2.79,0.79,2.59,0.74,2.4Z" transform="translate(-1405.69 -162.89)"/><path class="cls-2" d="M1474.25,185.44a1.44,1.44,0,0,1,0,.15,1.28,1.28,0,0,1,0,.13,1.11,1.11,0,0,1,0,.12,0.91,0.91,0,0,1,0,.1,1.26,1.26,0,0,1-.13.31,0.84,0.84,0,0,1-.19.22,0.78,0.78,0,0,1-.25.13,1.05,1.05,0,0,1-.31,0h-0.23l-0.23,0-0.29-.07-0.35-.1-0.41-.13-0.41-.13-0.36-.1-0.32-.08-0.27-.05-0.53-.07-0.52-.05-0.52,0h-0.51q-0.59,0-1.17,0t-1.14.15q-0.57.1-1.12,0.25t-1.09.34a10.15,10.15,0,0,0-1.69.79,7.61,7.61,0,0,0-1.37,1,6.55,6.55,0,0,0-1,1.27,6.78,6.78,0,0,0-.7,1.52,6.24,6.24,0,0,0-.28,1.6,9.28,9.28,0,0,0,.11,1.84,14.43,14.43,0,0,0,.5,2.09,22.65,22.65,0,0,0,.88,2.33l1.69,3.88,1.25,2.86,0.79,1.82,0.32,0.75a17.86,17.86,0,0,1,.7,2.53,18.19,18.19,0,0,1,.32,2.56,18.57,18.57,0,0,1,0,2.55,19,19,0,0,1-.38,2.51,18.62,18.62,0,0,0,.43-3.89,18.31,18.31,0,0,0-.4-4c-1.57-.48-3.21-0.93-4.93-1.36s-3.52-.84-5.4-1.22-3.86-.73-5.94-1-4.25-.61-6.54-0.86l-1.32-2.9-1-2.17q-0.4-.91-0.63-1.45t-0.29-.73a17.72,17.72,0,0,1-.67-5.77,19.39,19.39,0,0,1,.37-3,22.29,22.29,0,0,1,.84-3,19.13,19.13,0,0,1,2.13-4.22,22,22,0,0,1,3-3.63,25.06,25.06,0,0,1,3.73-3,26.48,26.48,0,0,1,4.2-2.22c1.35-.56,2.73-1.07,4.13-1.5s2.81-.81,4.23-1.11,2.84-.53,4.25-0.68a37.72,37.72,0,0,1,4.17-.23h1.3l0.25,0,0.22,0,0.19,0,0.16,0a0.74,0.74,0,0,1,.31.12,0.84,0.84,0,0,1,.24.26,1.44,1.44,0,0,1,.16.39,2.81,2.81,0,0,1,.08.53q0,0.89.19,2.18t0.38,3q0.24,1.68.59,3.74T1474.25,185.44Z" transform="translate(-1405.69 -162.89)"/><path class="cls-2" d="M1881.5,205c-2.21,1.11-4.27,2.27-6.22,3.46s-3.79,2.41-5.57,3.64-3.5,2.48-5.2,3.72-3.4,2.49-5.12,3.7l0.12,0,0.13,0,0.13,0,0.13,0a5.7,5.7,0,0,0-.87.18,3.07,3.07,0,0,0-.65.27,1.5,1.5,0,0,0-.43.35,0.86,0.86,0,0,0-.19.42c-1.31.9-2.64,1.79-4,2.65s-2.82,1.71-4.32,2.52-3.07,1.59-4.72,2.34-3.4,1.45-5.25,2.12q-0.47-2.59-.9-4.86t-0.82-4.2q-0.39-1.94-.74-3.55t-0.66-2.91q-0.64-2.64-1.32-5.27t-1.39-5.23q-0.71-2.6-1.43-5.19l-1.42-5.14-0.6-2.16-0.75-2.63-0.88-3.09-1-3.54-0.06-.18,0-.15,0-.15-0.05-.18a1.3,1.3,0,0,1-.08-0.48,0.67,0.67,0,0,1,.13-0.37,0.82,0.82,0,0,1,.34-0.25,1.93,1.93,0,0,1,.54-0.13l2-.22,2.44-.25,2.88-.29,3.33-.32,3.33-.33,2.88-.31,2.42-.28,2-.25,1.94-.27,2.37-.36,2.8-.44,3.22-.53,3.22-.54,2.79-.46,2.35-.38,1.92-.3,0.2,0,0.2,0h0.38a3.69,3.69,0,0,1,.84.09,2.72,2.72,0,0,1,.71.28,2.48,2.48,0,0,1,.58.46,2.91,2.91,0,0,1,.46.64q0.14,0.26.38,0.79t0.59,1.34q0.35,0.81.79,1.89t1,2.44l1,2.46,0.76,1.93q0.33,0.83.53,1.4t0.3,0.86a1.5,1.5,0,0,1,.08.45,0.69,0.69,0,0,1-.08.34,0.62,0.62,0,0,1-.24.24,1.17,1.17,0,0,1-.4.13l-0.17,0-0.23,0-0.28,0-0.34,0-5.82.45q-2.92.24-5.85,0.5t-5.84.59q-2.92.32-5.81,0.7a7.68,7.68,0,0,0-1.14.23,3.92,3.92,0,0,0-.86.35,2,2,0,0,0-.56.47,1.28,1.28,0,0,0-.26.58,1.82,1.82,0,0,0,0,.46q0,0.31.13,0.78t0.25,1.1q0.15,0.63.37,1.42c0.15,0.55.3,1.05,0.46,1.51a11,11,0,0,0,.52,1.21,5.94,5.94,0,0,0,.56.92,3.17,3.17,0,0,0,.61.62,2.41,2.41,0,0,0,.43.26,3.13,3.13,0,0,0,.51.18,4.25,4.25,0,0,0,.6.11,6,6,0,0,0,.68,0h0.28l0.3,0,0.31,0,0.32,0,0.3,0,0.42-.07,0.53-.1,0.64-.12,0.67-.12,0.61-.11,0.55-.09,0.49-.07,3.1-.45,3.11-.5c1-.17,2.07-0.36,3.09-0.56s2-.41,3-0.63l0.36-.08,0.56-.13,0.75-.19,0.93-.24,0.75-.2,0.68-.17,0.6-.13,0.52-.1a1.37,1.37,0,0,1,.59.14,2.07,2.07,0,0,1,.47.31,2.65,2.65,0,0,1,.32.32l0.13,0.17s0,0.1,0,.28,0.07,0.44.14,0.82,0.15,0.87.27,1.5S1881.33,204.05,1881.5,205Z" transform="translate(-1405.69 -162.89)"/><path class="cls-2" d="M1723.58,221.28l-0.23.85-0.21.81-0.2.77-0.19.74q-2-.36-4.14-0.71t-4.39-.66q-2.26-.31-4.65-0.6t-4.95-.53q1.35-4.13,2.7-8.25t2.62-8.17q1.28-4.05,2.47-8.07t2.24-8a7.45,7.45,0,0,1,.26-0.81,3.3,3.3,0,0,1,.29-0.59,1.33,1.33,0,0,1,.33-0.36,0.68,0.68,0,0,1,.37-0.13h1.37l0.8,0,0.91,0,1,0,1,0,0.88,0,0.78,0h1.53l0.74,0,0.89-.07,1-.09,1.2-.12,1.2-.12,1-.1,0.88-.07,0.72,0a1.29,1.29,0,0,1,.48.1,1.84,1.84,0,0,1,.47.29,3.1,3.1,0,0,1,.46.48,5.44,5.44,0,0,1,.45.66c1.58,2.74,3.11,5.55,4.62,8.4s3,5.79,4.48,8.73,3,5.94,4.46,8.93,3,6,4.54,9q0.54,1.06,1.12,2.13t1.18,2.16l1.23,2.19,1.26,2.21c-1.95-.45-3.87-0.92-5.79-1.4l-5.79-1.48c-1.95-.5-3.92-1-5.95-1.52s-4.1-1-6.26-1.5q-0.2-.57-0.44-1.22l-0.52-1.39-0.6-1.55-0.69-1.72c-0.49-1.2-1-2.36-1.45-3.43s-0.92-2-1.3-2.87-0.72-1.52-1-2l-0.42-.85a2.75,2.75,0,0,0-.33.83c-0.17.52-.4,1.28-0.67,2.18s-0.57,2-.89,3.13S1723.92,220,1723.58,221.28Z" transform="translate(-1405.69 -162.89)"/><path class="cls-2" d="M1695.36,215a38.16,38.16,0,0,1-.1,4.26,34.88,34.88,0,0,1-.6,4.26,30.47,30.47,0,0,1-1.16,4.15,26.35,26.35,0,0,1-1.78,3.92,25.6,25.6,0,0,0,1.2-2.46c0.36-.84.67-1.69,0.95-2.56s0.51-1.75.7-2.65,0.36-1.79.48-2.7q-2.36-.15-4.84-0.26t-5.11-.2q-2.62-.08-5.39-0.13t-5.69-.05a11.38,11.38,0,0,0,.4-1.09,11.84,11.84,0,0,0,.29-1.15c0.08-.39.14-0.79,0.18-1.2s0.06-.82.06-1.24a12.94,12.94,0,0,0-.83-4.6,11.41,11.41,0,0,0-2.31-3.73,10.63,10.63,0,0,0-3.54-2.51,11.3,11.3,0,0,0-4.53-.92h-0.24l-3.49.08c-1,0-1.89.08-2.61,0.13a12.39,12.39,0,0,0-1.68.22,1.11,1.11,0,0,0-.72.35,3.93,3.93,0,0,0-.17,1q-0.09.8-.18,2.24t-0.18,3.54q-0.09,2.1-.17,4.85,0,0.39,0,.87c0,0.32,0,.67,0,1.05s0,0.8,0,1.24,0,0.92,0,1.43q-2.78.17-5.39,0.39t-5.07.48q-2.46.26-4.76,0.56t-4.48.63q0.22-4.2.35-8.37t0.19-8.29q0.06-4.11.06-8.2t0-8.1c0-.07,0-0.13,0-0.18s0-.11,0-0.16,0-.1,0-0.16,0-.12,0-0.18a0.81,0.81,0,0,1,.08-0.41,0.84,0.84,0,0,1,.28-0.32,1.7,1.7,0,0,1,.49-0.22,3.84,3.84,0,0,1,.69-0.12l1.26-.08,1.62-.06,2,0H1646l2.33,0,2.55,0,2.78,0,3.83,0.08,3.75,0.1,3.67,0.1,3.58,0.11a33.74,33.74,0,0,1,5.14.55,30.47,30.47,0,0,1,5,1.36,27.13,27.13,0,0,1,4.66,2.23,24.64,24.64,0,0,1,4.16,3.16,23.2,23.2,0,0,1,3.38,4,25.58,25.58,0,0,1,2.43,4.62,28.68,28.68,0,0,1,1.51,5A31.26,31.26,0,0,1,1695.36,215Z" transform="translate(-1405.69 -162.89)"/><path class="cls-2" d="M1816.27,235.13l-3.05.28-3,.24-2.87.21-2.78.17,0.08,0.12,0.08,0.12,0.08,0.12,0.08,0.12-0.68-1.05-0.7-1.08-0.72-1.11-0.74-1.13a2.65,2.65,0,0,0-1.06-.82,9.21,9.21,0,0,0-1.53-.56c-0.52-.15-1-0.25-1.41-0.33l-0.7-.12-0.2,0-0.75.1-1.6.18-2.76.25a0.4,0.4,0,0,0-.31.19,1.21,1.21,0,0,0-.16.51,4.45,4.45,0,0,0,0,.83q0,0.5.15,1.16l0.11,0.63,0.13,0.68,0.15,0.73,0.17,0.78h-0.47q-2.86,0-5.52-.09t-5.15-.24q-2.49-.16-4.83-0.39t-4.55-.51q-0.22-2.28-.43-4.29t-0.4-3.74q-0.19-1.73-.38-3.2t-0.36-2.66q-0.6-4.17-1.22-8.31t-1.29-8.22q-0.67-4.07-1.42-8.11t-1.62-8l0-.18,0-.15,0-.16,0-.18a0.7,0.7,0,0,1,0-.38,0.83,0.83,0,0,1,.24-0.33,1.75,1.75,0,0,1,.45-0.28,4.09,4.09,0,0,1,.66-0.22c0.26-.07.76-0.15,1.5-0.25s1.73-.22,3-0.35l4.42-.47,5.87-.6,4.25-.45,3.81-.41,3.33-.33c1-.09,2-0.16,2.83-0.21l1,0,1,0,1,0h1c1.26,0,2.52,0,3.77.15a34,34,0,0,1,3.76.52,29.26,29.26,0,0,1,3.77,1,28.87,28.87,0,0,1,3.81,1.61,20.85,20.85,0,0,1,4.16,2.8,22.06,22.06,0,0,1,3.35,3.64,23.44,23.44,0,0,1,2.48,4.27,23.94,23.94,0,0,1,1.55,4.7q0.39,1.78.62,3.41c0.15,1.09.26,2.12,0.3,3.11a22.33,22.33,0,0,1,0,2.79,15.33,15.33,0,0,1-.38,2.46,14.42,14.42,0,0,1-.8,2.31,17.85,17.85,0,0,1-1.26,2.35,22.64,22.64,0,0,1-1.73,2.36,28.55,28.55,0,0,1-2.2,2.35,2.56,2.56,0,0,0-.41.51,3.36,3.36,0,0,0-.26.53,4,4,0,0,0-.14.42c0,0.11,0,.18,0,0.19l0.45,0.6,1.2,1.63,2,2.71,2.85,3.84-2.19.36-2.27.33-2.36.3ZM1797,217.24a18.25,18.25,0,0,0,4.75-1,8.3,8.3,0,0,0,3.14-2,6,6,0,0,0,1.54-2.92,9.49,9.49,0,0,0-.06-3.85,15.55,15.55,0,0,0-.8-2.76,10.86,10.86,0,0,0-1.2-2.24,8.68,8.68,0,0,0-1.6-1.73,8.54,8.54,0,0,0-2-1.22,10,10,0,0,0-1.31-.46,14.27,14.27,0,0,0-1.52-.33q-0.81-.13-1.72-0.2t-1.92-.07h-0.81l-0.84,0-0.87,0-0.91.07q-1.17.1-2.06,0.27a8.45,8.45,0,0,0-1.48.4,2.69,2.69,0,0,0-.9.53,0.93,0.93,0,0,0-.31.65,10.66,10.66,0,0,0,.07,1.23q0.08,0.81.25,2t0.42,2.83q0.26,1.62.6,3.63l0.11,0.64,0.14,0.78,0.17,0.92,0.2,1.05,0.2,1.06,0.17,0.91,0.14,0.77,0.11,0.62a0.21,0.21,0,0,0,.13.12,1.48,1.48,0,0,0,.33.1l0.53,0.08,0.73,0.06,0.6,0,0.6,0h2.24l1,0,1-.06,1.06-.08" transform="translate(-1405.69 -162.89)"/><path class="cls-2" d="M1542,190.6a31.7,31.7,0,0,1,3.24,6,34.26,34.26,0,0,1,2,6.61,37.48,37.48,0,0,1,.65,7,41,41,0,0,1-.67,7.28,43.31,43.31,0,0,1-1.37,5.47,43.85,43.85,0,0,1-2.1,5.31,43.4,43.4,0,0,1-2.81,5,42.33,42.33,0,0,1-3.5,4.67l0.35-.42,0.35-.42,0.34-.42,0.34-.43c-2.6-.25-5.07-0.55-7.41-0.88s-4.56-.7-6.68-1.11-4.12-.84-6-1.31-3.72-1-5.45-1.49a17.77,17.77,0,0,0,1.81-.64,19.09,19.09,0,0,0,1.77-.85q0.88-.48,1.74-1.06t1.7-1.27a23.76,23.76,0,0,0,2.75-2.64,21.24,21.24,0,0,0,2.18-2.92,20.51,20.51,0,0,0,1.61-3.2,21.36,21.36,0,0,0,1-3.47,22.53,22.53,0,0,0,.48-3.66,18.3,18.3,0,0,0-.16-3.42,16.3,16.3,0,0,0-.78-3.19,16.49,16.49,0,0,0-1.4-3,14.7,14.7,0,0,0-2-2.65,13.05,13.05,0,0,0-2.48-2,13.74,13.74,0,0,0-2.95-1.38,17.15,17.15,0,0,0-3.42-.75l-0.49-.05-0.49,0-0.49,0h-0.48a16,16,0,0,0-2.91.26,16.56,16.56,0,0,0-2.85.79,18.66,18.66,0,0,0-2.79,1.33,23,23,0,0,0-2.73,1.86,25.49,25.49,0,0,0-2.79,2.54,22.24,22.24,0,0,0-2.27,2.83,21,21,0,0,0-1.74,3.12,21.73,21.73,0,0,0-1.21,3.42,24.55,24.55,0,0,0-.64,3.38,19.34,19.34,0,0,0-.11,3.2,16.28,16.28,0,0,0,.43,3,15.24,15.24,0,0,0,1,2.81c-1.72-.86-3.4-1.74-5.07-2.61s-3.34-1.74-5-2.61-3.42-1.71-5.2-2.54-3.62-1.64-5.55-2.42a39.53,39.53,0,0,0-.47,4.28,37.12,37.12,0,0,0,0,4.25,34.68,34.68,0,0,0,.5,4.17,32.42,32.42,0,0,0,1,4,32.73,32.73,0,0,1-1.2-5.22,35.76,35.76,0,0,1-.37-5.41,38.82,38.82,0,0,1,.43-5.5,41.86,41.86,0,0,1,1.21-5.49,45.16,45.16,0,0,1,2.69-7,45.75,45.75,0,0,1,3.81-6.48,45.09,45.09,0,0,1,4.84-5.77,43.71,43.71,0,0,1,5.77-4.89,41.06,41.06,0,0,1,5.47-3.27,40.47,40.47,0,0,1,5.76-2.33,39.7,39.7,0,0,1,5.93-1.4,38.68,38.68,0,0,1,6-.46l1.08,0,1.08,0,1.08,0.08,1.07,0.11a35.31,35.31,0,0,1,6.73,1.46,32.59,32.59,0,0,1,6.14,2.7,30.43,30.43,0,0,1,5.38,3.91A29.46,29.46,0,0,1,1542,190.6Z" transform="translate(-1405.69 -162.89)"/><path class="cls-2" d="M1625.47,187.53a0.84,0.84,0,0,1,.4.11,0.75,0.75,0,0,1,.27.29,1.43,1.43,0,0,1,.14.48,3.3,3.3,0,0,1,0,.66q-0.1,1.39-.25,3.12t-0.37,3.84q-0.21,2.1-.48,4.57t-0.6,5.31q-0.33,2.85-.6,5.35t-0.49,4.68q-0.22,2.17-.39,4t-0.27,3.29l-0.18,2.4q-0.09,1.21-.18,2.41l-0.18,2.42-0.18,2.43,0.14-1.9,0.14-1.9,0.14-1.89,0.14-1.89c-3.43.75-6.64,1.55-9.71,2.36s-6,1.65-8.9,2.46-5.74,1.62-8.63,2.38-5.82,1.47-8.88,2.09l2.66,4.34,2.7,4.36,2.73,4.38,2.76,4.4-3.08-4.91-3-4.89-3-4.86q-1.49-2.42-2.94-4.83c-0.5-.83-1.1-1.78-1.76-2.82l-2.17-3.43c-0.78-1.24-1.61-2.58-2.47-4s-1.74-2.94-2.64-4.54a1.48,1.48,0,0,0-.13-0.19l-0.19-.22a1.64,1.64,0,0,0-.2-0.18,0.32,0.32,0,0,0-.17-0.08,0.25,0.25,0,0,0-.15.1,1.41,1.41,0,0,0-.17.25,2.44,2.44,0,0,0-.16.35,1.93,1.93,0,0,0-.1.38q-0.21,1.47-.45,3.32t-0.52,4.08q-0.28,2.24-.59,4.86t-0.65,5.65l0,0.13v0.13l0,0.13,0,0.13q-1.6.15-3.27,0.27t-3.42.2q-1.75.08-3.58,0.12t-3.76,0h-1.62l-1.66,0-1.69,0-1.73-.05q-0.36,1.64-.69,3.17t-0.62,2.93q-0.3,1.4-.56,2.68t-0.49,2.44q0.25-1.27.54-2.69t0.62-3q0.33-1.57.7-3.29t0.78-3.58q0.62-2.82,1.15-5.28t0.95-4.54q0.42-2.09.75-3.82t0.57-3.12q0.25-1.46.53-3.27t0.59-4q0.31-2.16.64-4.67t0.7-5.35q0.37-2.84.7-5.3t0.63-4.56q0.3-2.09.57-3.82t0.5-3.11a1,1,0,0,1,.48-0.69,1.64,1.64,0,0,1,.49-0.17,3.21,3.21,0,0,1,.65-0.06h0.47l1.16,0.08,1.27,0.06,1.38,0h3.24l0.62,0,0.87-.06,1.11-.1,1.36-.13,0.85-.08,0.78-.05,0.72,0h1.58a0.65,0.65,0,0,1,.32.13,2,2,0,0,1,.37.34,5.5,5.5,0,0,1,.42.55c0.15,0.22.3,0.47,0.47,0.76q1.85,3.27,3.74,6.54t3.81,6.58q1.93,3.31,3.89,6.62t4,6.67l1.21,2q0.68,1.13,1.5,2.48t1.8,2.89q1,1.55,2.12,3.27a7.11,7.11,0,0,0,.54.73,4.27,4.27,0,0,0,.53.53,2.31,2.31,0,0,0,.51.33,1.32,1.32,0,0,0,.48.12,0.41,0.41,0,0,0,.32-0.25,2.91,2.91,0,0,0,.29-0.74,11.88,11.88,0,0,0,.25-1.23q0.12-.74.21-1.72,0.13-1.34.26-3t0.26-3.67q0.13-2,.25-4.31t0.24-4.95q0.12-2.63.24-4.91t0.25-4.23q0.13-1.94.26-3.56t0.26-2.9a4.37,4.37,0,0,1,.14-0.76,2,2,0,0,1,.24-0.54,1,1,0,0,1,.34-0.33,0.88,0.88,0,0,1,.44-0.11l1.7,0.07,2.06,0.06,2.43,0,2.8,0,2.8,0,2.42,0,2,0Z" transform="translate(-1405.69 -162.89)"/><path class="cls-3" d="M1909.9,196.08l0.18,0.55,0.17,0.53,0.17,0.52,0.17,0.51,0.31,0.93,0.3,0.88,0.28,0.83,0.27,0.77q0.76,2.15,1.56,4.31t1.61,4.34q0.81,2.18,1.64,4.36l1.66,4.39,1.67,4.42,1.68,4.45q0.84,2.23,1.66,4.48t1.63,4.51l0,0.14,0,0.13,0,0.13,0,0.12a1.91,1.91,0,0,1,0,.28,1.11,1.11,0,0,1,0,.23,0.69,0.69,0,0,1-.06.19,0.48,0.48,0,0,1-.11.14l-0.11.06-0.24.09-0.38.13-0.51.17q-0.79.25-1.73,0.51t-2,.51q-1.09.25-2.33,0.5t-2.63.5l-0.48.08-0.47.08-0.46.08L1913,241h-0.44l-1.13.18-1,.16-1,.14-0.88.12-0.18,0-0.17,0-0.17,0-0.17,0-0.73.08-0.64.05-0.56,0h-0.48a2.3,2.3,0,0,1-.9-0.22,3.25,3.25,0,0,1-.7-0.45,4.1,4.1,0,0,1-.47-0.45c-0.11-.13-0.18-0.22-0.19-0.23l-0.14-.55-0.42-1.58-0.75-2.79c-0.31-1.15-.69-2.53-1.14-4.17l-1.87-6.77Q1898,221.34,1897,218t-1.93-6.64q-1-3.29-2-6.54l-0.3-.92-0.33-1-0.36-1.07-0.39-1.14q1.94-.68,4-1.31t4.36-1.21q2.27-.58,4.72-1.1T1909.9,196.08Z" transform="translate(-1405.69 -162.89)"/><path class="cls-3" d="M1857.77,220.63a1.76,1.76,0,0,0,0,.35q0,0.25.15,0.65l0.25,1,0.34,1.28q0.26,1,.5,1.75t0.47,1.4q0.23,0.61.45,1.05a4.27,4.27,0,0,0,.42.7,2.86,2.86,0,0,0,1.46.73,17.12,17.12,0,0,0,2.34.42c0.82,0.1,1.61.16,2.22,0.19l1.12,0.05,0.51-.07,1.37-.2,2.29-.33,3.26-.47q0.67-.1,1.5-0.26l1.81-.37,2.11-.48,2.42-.59,2.41-.59,2.09-.48,1.78-.38,1.47-.27h0.34l0.11,0,0.09,0a1.1,1.1,0,0,1,.24.12,1.38,1.38,0,0,1,.22.18,1.78,1.78,0,0,1,.2.24,2.45,2.45,0,0,1,.18.31l0.07,0.14,0.07,0.15,0.06,0.16,0.06,0.17c0.12,0.39.25,0.86,0.38,1.4s0.27,1.15.41,1.84,0.28,1.45.43,2.3,0.31,1.77.47,2.77,0.33,2.08.45,3,0.21,1.66.28,2.32,0.1,1.22.1,1.67a4,4,0,0,1-.08,1,1.92,1.92,0,0,1-.2.48,1.53,1.53,0,0,1-.7.63,2,2,0,0,1-.5.15l-0.28,0-0.36,0-0.44,0-0.52,0c-1.84.08-3.69,0.22-5.54,0.42s-3.72.44-5.58,0.7-3.73.55-5.59,0.84-3.72.58-5.57,0.84l-2.26.32-2.75.37-3.25.42-3.74.48-3.75.47-3.25.4-2.75.34-2.25.28h-0.66a1.84,1.84,0,0,1-.52-0.13,1.36,1.36,0,0,1-.41-0.26,1.5,1.5,0,0,1-.3-0.4,2.19,2.19,0,0,1-.2-0.54q-0.35-1.47-.74-3.31t-0.83-4q-0.44-2.2-.92-4.75t-1-5.45l0-.21,0-.2,0-.2,0-.2,0-.19,0-.19,0-.19,0-.19c1.85-.66,3.6-1.37,5.25-2.12s3.22-1.53,4.72-2.34,2.93-1.65,4.32-2.52S1856.46,221.53,1857.77,220.63Z" transform="translate(-1405.69 -162.89)"/><path class="cls-3" d="M1442.18,206.17c2.29,0.25,4.47.54,6.54,0.86s4.05,0.67,5.94,1,3.69,0.79,5.4,1.22,3.36,0.89,4.93,1.36a18.22,18.22,0,0,1,.33,2.18,18.63,18.63,0,0,1-.12,4.35,18.49,18.49,0,0,1-.43,2.11l0,0.08,0,0.07,0,0.06,0,0.06,0,0.09,0,0.08,0,0.07,0,0.06a23.62,23.62,0,0,1-2.17,5,27.14,27.14,0,0,1-3.25,4.49,30.66,30.66,0,0,1-4.11,3.83,32.53,32.53,0,0,1-4.74,3.06,44.41,44.41,0,0,1-5.5,2.45,43.77,43.77,0,0,1-5.47,1.61,47.13,47.13,0,0,1-5.44.89c-1.81.19-3.61,0.28-5.4,0.29h-0.21l-0.19,0-0.16,0-0.13,0a1.11,1.11,0,0,1-.63-0.6,8.47,8.47,0,0,1-.68-1.57q-0.35-1-.72-2.54t-0.76-3.5q-0.39-2-.64-3.57t-0.37-2.77a17.89,17.89,0,0,1-.1-2,3.91,3.91,0,0,1,.15-1.18,0.77,0.77,0,0,1,.14-0.25,0.78,0.78,0,0,1,.22-0.17,1.08,1.08,0,0,1,.29-0.11,1.86,1.86,0,0,1,.37,0q2-.05,3.63-0.16t3-.25c0.9-.1,1.7-0.2,2.38-0.32s1.26-.24,1.73-0.36a14.69,14.69,0,0,0,2.81-1.06,10.94,10.94,0,0,0,2.25-1.5,9.48,9.48,0,0,0,1.69-1.93,10,10,0,0,0,1.13-2.35l0.08-.26,0.07-.26c0-.09,0-0.17.06-0.26s0-.18.05-0.27a8.06,8.06,0,0,0,.11-1.52,10.13,10.13,0,0,0-.17-1.64,13.12,13.12,0,0,0-.45-1.74,17.62,17.62,0,0,0-.73-1.85l-0.06-.13-0.06-.13-0.06-.12-0.06-.12-0.09-.19-0.09-.19-0.09-.19Z" transform="translate(-1405.69 -162.89)"/><path class="cls-3" d="M1825.54,233.88l0.59,0.8,0.62,0.83,0.65,0.87,0.67,0.91q2.3,3.08,4.06,5.49t3,4.14q1.21,1.73,1.86,2.77a6.23,6.23,0,0,1,.73,1.38,0.28,0.28,0,0,1,0,.19,0.56,0.56,0,0,1-.17.17,1.74,1.74,0,0,1-.3.16l-0.43.14q-0.48.14-1.35,0.3t-2.12.35q-1.26.19-2.9,0.39l-3.67.43h-0.22l-1.86.2-1.69.16-1.51.13-1.34.09-0.71,0-0.65,0-0.58,0h-1l-0.54,0-0.41,0-0.28,0-0.15,0-0.19-.12a2.11,2.11,0,0,1-.23-0.2,3.48,3.48,0,0,1-.26-0.29,4.4,4.4,0,0,1-.27-0.38c-0.2-.31-0.43-0.67-0.67-1.08l-0.81-1.36-0.95-1.61-1.09-1.83-0.31-.52-0.33-.55-0.35-.58-0.37-.6-1.09-1.77-1.21-1.95-1.33-2.11-1.45-2.27-0.08-.12-0.08-.12-0.08-.12-0.08-.12,2.78-.17,2.87-.21,3-.24,3.05-.28,2.45-.26,2.36-.3,2.27-.33Z" transform="translate(-1405.69 -162.89)"/><path class="cls-3" d="M1771.78,235.18q2.21,0.29,4.55.51t4.83,0.39q2.49,0.16,5.15.24t5.52,0.09h0.47q0.13,0.58.27,1.2c0.1,0.42.2,0.85,0.31,1.31l0.34,1.41,0.38,1.52,0.14,0.54,0.14,0.55,0.15,0.57,0.15,0.58q0.47,1.76.86,3.3t0.7,2.88q0.31,1.34.55,2.46t0.39,2V255a1.81,1.81,0,0,1,0,.33,1,1,0,0,1-.06.26,0.58,0.58,0,0,1-.11.19,0.36,0.36,0,0,1-.16.1l-0.34.08-0.37.06-0.39,0-0.38.05-1.78.25-2.23.26-2.68.26-3.13.27h-0.38l-2.22.16-1.92.12-1.62.08-1.32,0h-1.85a3,3,0,0,1-.71-0.17,1.83,1.83,0,0,1-.54-0.32,1.49,1.49,0,0,1-.36-0.46,1.89,1.89,0,0,1-.18-0.6q-0.21-1.47-.43-3.31t-0.46-4q-0.24-2.2-.49-4.75t-0.52-5.45l-0.08-.84-0.08-.82-0.08-.8Z" transform="translate(-1405.69 -162.89)"/><path class="cls-3" d="M1473.6,213.7c1.93,0.78,3.77,1.59,5.55,2.42s3.5,1.68,5.2,2.54,3.36,1.74,5,2.61,3.35,1.75,5.07,2.61l0.14,0.28,0.14,0.27,0.14,0.27L1495,225a14,14,0,0,0,2,2.73,13,13,0,0,0,2.57,2.1,14.48,14.48,0,0,0,3.12,1.46,18.81,18.81,0,0,0,3.67.81l0.13,0h0.39l0.38,0,0.38,0h0.76q0.6,0,1.2,0t1.19-.13q0.59-.09,1.18-0.21t1.16-.3c1.74,0.52,3.56,1,5.47,1.49s3.92,0.91,6,1.32,4.34,0.78,6.68,1.11,4.81,0.63,7.41.88q-0.45.58-.93,1.15t-1,1.12q-0.5.55-1,1.09c-0.34.36-.7,0.71-1.06,1.06l-0.75.7-0.65.59-0.59.51-0.56.47-0.06,0,0,0,0,0,0,0-0.17.14-0.12.09-0.08.06-0.06,0a39.87,39.87,0,0,1-5.68,3.71,40.35,40.35,0,0,1-6.09,2.65,40.94,40.94,0,0,1-12.76,2.17h-0.41l-1.26,0-1.24-.06-1.22-.09-1.21-.13a37.2,37.2,0,0,1-7.38-1.66,33.65,33.65,0,0,1-6.68-3.09,30.63,30.63,0,0,1-5.71-4.45,29.05,29.05,0,0,1-4.49-5.74l0-.08,0-.08,0-.08,0-.08a30.26,30.26,0,0,1-2.41-5.28,32.6,32.6,0,0,1-1.39-5.64,35.62,35.62,0,0,1-.41-5.87A39.1,39.1,0,0,1,1473.6,213.7Z" transform="translate(-1405.69 -162.89)"/><path class="cls-3" d="M1572.76,236.69l-0.1.9-0.1.89-0.1.87-0.1.85q-0.27,2.3-.51,4.34t-0.47,3.85q-0.23,1.8-.43,3.34t-0.38,2.82v0.11a3.21,3.21,0,0,1-.2.72,1.79,1.79,0,0,1-.32.52,1.25,1.25,0,0,1-.44.31,1.46,1.46,0,0,1-.56.11h-0.2l-4.69-.36-4.69-.37-4.68-.39-4.68-.41a2,2,0,0,1-.67-0.16,1.1,1.1,0,0,1-.44-0.35,1.2,1.2,0,0,1-.21-0.55,2.39,2.39,0,0,1,0-.73l0.17-1,0.19-1.06c0.07-.37.14-0.75,0.21-1.14l0.23-1.21v-0.19q0.23-1.15.49-2.44t0.56-2.68q0.3-1.4.63-2.93t0.69-3.17l1.73,0.05,1.69,0,1.66,0h1.62q1.92,0,3.76,0t3.58-.12q1.75-.08,3.42-0.2T1572.76,236.69Z" transform="translate(-1405.69 -162.89)"/><path class="cls-3" d="M1704.61,222q2.55,0.25,4.95.53t4.65,0.6q2.26,0.31,4.39.66t4.14,0.71q-0.26,1-.47,1.9t-0.37,1.58q-0.16.71-.26,1.26c-0.07.37-.12,0.68-0.15,0.94l0,0.22c0,0.06,0,.12,0,0.17s0,0.09,0,.13,0,0.07,0,.11a0.55,0.55,0,0,0,.23.4,1.73,1.73,0,0,0,.62.28,6.07,6.07,0,0,0,1,.17q0.59,0.06,1.37.06h1.5l1.13,0,1.27,0,1.43-.05q0.86,0,1.52-.12a8.41,8.41,0,0,0,1.13-.2,2.75,2.75,0,0,0,.74-0.29,0.74,0.74,0,0,0,.34-0.38,1,1,0,0,0,0-.14c0-.05,0-0.11,0-0.17s0-.13,0-0.2,0-.14,0-0.22a4.56,4.56,0,0,0-.09-0.54c0-.21-0.11-0.46-0.19-0.74s-0.17-.59-0.28-0.93-0.24-.72-0.38-1.12c2.16,0.49,4.24,1,6.26,1.5s4,1,5.95,1.52l5.79,1.48c1.92,0.48,3.84,1,5.79,1.4,1.13,2,2.28,3.94,3.4,5.92s2.23,4,3.26,5.93,2,3.92,2.83,5.83a51.49,51.49,0,0,1,2.13,5.62l0,0.11,0,0.1,0,0.09,0,0.09,0.07,0.24,0,0.16,0,0.11,0,0.08a1.14,1.14,0,0,1,0,.46,1.15,1.15,0,0,1-.22.4,1.63,1.63,0,0,1-.38.33,2.53,2.53,0,0,1-.52.25,7.75,7.75,0,0,1-1.21.28q-0.82.14-2.07,0.27t-2.93.27q-1.68.13-3.79,0.26l-2.14.12-1.91.09-1.68,0-1.44,0h-1.27l-0.51,0-0.45,0h-0.6a3.16,3.16,0,0,1-.86-0.24,2.78,2.78,0,0,1-.72-0.46,3.19,3.19,0,0,1-.57-0.68,4.35,4.35,0,0,1-.42-0.9q-0.65-1.9-1.21-3.36t-1-2.47a12.9,12.9,0,0,0-.81-1.57,1.7,1.7,0,0,0-.62-0.67l-0.22,0-0.39,0-0.57,0h-1.82l-1.28,0-1.49,0-1.7.05h-1.27l-0.44,0-1.19,0-1.26,0-1.33.05-1.4.05q-2.27.09-4,.18t-3,.2c-0.81.07-1.44,0.14-1.88,0.21a2,2,0,0,0-.8.24,2.23,2.23,0,0,0-.43.67,9.18,9.18,0,0,0-.42,1.19c-0.14.48-.28,1.05-0.42,1.7s-0.28,1.39-.42,2.2-0.27,1.41-.43,2a10.13,10.13,0,0,1-.51,1.49,3.83,3.83,0,0,1-.6,1,1.42,1.42,0,0,1-.68.46,9.93,9.93,0,0,1-1.45.24q-1,.11-2.55.21t-3.65.17q-2.1.08-4.75,0.13h-1.21q-1.78,0-3.13-.11a18.26,18.26,0,0,1-2.25-.29,5,5,0,0,1-1.36-.44,0.69,0.69,0,0,1-.45-0.55,50.6,50.6,0,0,1,1.67-8.16c0.79-2.81,1.77-5.7,2.83-8.6s2.18-5.81,3.27-8.69,2.13-5.69,3-8.43l0.26-.81,0.27-.81,0.27-.81,0.26-.81,0.08-.26,0.08-.26,0.08-.26Z" transform="translate(-1405.69 -162.89)"/><path class="cls-3" d="M1622.68,225.32l-0.14,1.89-0.14,1.89-0.14,1.9-0.14,1.9-0.45,6.14-0.46,6.19-0.46,6.25-0.47,6.31a1.93,1.93,0,0,1-.13.59,1.18,1.18,0,0,1-.74.7,2,2,0,0,1-.61.1h-0.21l-0.74,0-0.91,0h-4.63l-0.91,0-0.74,0-0.79-.05-1-.09-1.14-.12-1.32-.16-1.32-.16-1.14-.13-1-.09-0.79-.06a1.3,1.3,0,0,1-.5-0.14,2.43,2.43,0,0,1-.53-0.36,4.79,4.79,0,0,1-.55-0.59,8.83,8.83,0,0,1-.57-0.81l-0.67-1.05-0.67-1.05-0.67-1.05-0.66-1.05-2.76-4.4-2.73-4.38-2.7-4.36-2.66-4.34c3.06-.63,6-1.34,8.88-2.09s5.73-1.56,8.63-2.38,5.83-1.65,8.9-2.46S1619.25,226.07,1622.68,225.32Z" transform="translate(-1405.69 -162.89)"/><path class="cls-3" d="M1674,220.54q2.92,0,5.69.05t5.39,0.13q2.63,0.08,5.11.2t4.84,0.26c-0.15,1.08-.35,2.15-0.6,3.21a30.41,30.41,0,0,1-.92,3.13,27,27,0,0,1-1.28,3,24.48,24.48,0,0,1-1.65,2.82l0,0.06,0,0,0,0,0,0-0.07.1-0.06.08,0,0.07,0,0.06-0.13.17-0.08.1,0,0.06,0,0-0.08.11-0.06.08-0.05.07,0,0.06-0.06.08-0.05.06,0,0.05,0,0-0.08.1-0.06.08-0.05.07,0,0.06-0.2.24-0.21.24-0.21.23-0.21.23a21.52,21.52,0,0,1-3.87,3.25,23.77,23.77,0,0,1-4.46,2.29,26.8,26.8,0,0,1-4.85,1.37,29.41,29.41,0,0,1-5,.48h-0.75l-1.2,0-1.47-.05-1.74-.08-2-.12-2-.13-1.74-.1-1.47-.06-1.2,0a4.09,4.09,0,0,0-1,.14,2,2,0,0,0-.72.37,1.5,1.5,0,0,0-.43.59,2.3,2.3,0,0,0-.16.82c0,0.4,0,.86,0,1.36s0,1.06,0,1.67,0.06,1.26.1,2,0.09,1.47.15,2.28,0.11,1.57.15,2.28,0.08,1.37.1,2,0,1.17,0,1.67,0,1,0,1.37a1.91,1.91,0,0,1-.07.49,1.06,1.06,0,0,1-.18.36,0.87,0.87,0,0,1-.29.24,1.17,1.17,0,0,1-.4.11h-0.2l-1.9,0-2.3-.08-2.71-.12-3.12-.15-3.12-.16-2.7-.13-2.29-.1-1.87-.07a2.15,2.15,0,0,1-.69-0.12,1.2,1.2,0,0,1-.48-0.31,1.16,1.16,0,0,1-.27-0.5,2.13,2.13,0,0,1-.06-0.69q0.08-1.49.21-3.35t0.27-4.08q0.15-2.22.33-4.79t0.39-5.49q0.21-2.91.4-5.45t0.33-4.69q0.15-2.15.26-3.94t0.18-3.19q2.18-.34,4.48-0.64t4.76-.56q2.45-.26,5.07-0.48t5.39-.39q0,0.79,0,1.48t0,1.28c0,0.39,0,.75,0,1.08s0,0.63,0,.89a0.66,0.66,0,0,0,.6.43,10.87,10.87,0,0,0,1.79.31c0.79,0.09,1.77.16,2.94,0.22s2.5,0.13,4,.19h0.49a11.2,11.2,0,0,0,3.24-.46,10.38,10.38,0,0,0,5-3.34A10.79,10.79,0,0,0,1674,220.54Z" transform="translate(-1405.69 -162.89)"/><path class="cls-3" d="M1881.5,205l0.12,0.61,0.13,0.66,0.14,0.7,0.15,0.75q0.2,1,.43,2t0.48,2q0.25,1,.54,2t0.59,2v0.18a0.8,0.8,0,0,1,0,.38,0.7,0.7,0,0,1-.21.3,1.25,1.25,0,0,1-.38.22,2.68,2.68,0,0,1-.56.14l-1.25.05-1.07,0-1.07,0-1.24,0q-0.73,0-1.92.15t-2.82.32l-3.72.48-4.63.64-1.43.2-1.23.17-1.23.17-1.43.2-0.13,0-0.13,0-0.13,0-0.12,0c1.72-1.22,3.41-2.46,5.12-3.7s3.42-2.49,5.2-3.72,3.62-2.45,5.57-3.64S1879.29,206.12,1881.5,205Z" transform="translate(-1405.69 -162.89)"/></svg>